<?xml version="1.0" encoding="UTF-8"?>
<svg width="80px" height="80px" viewBox="0 0 80 80" version="1.1" xmlns="http://www.w3.org/2000/svg" xmlns:xlink="http://www.w3.org/1999/xlink" style="background: #33BE72;">
    <!-- Generator: Sketch 44.1 (41455) - http://www.bohemiancoding.com/sketch -->
    <title>Artboard 6</title>
    <desc>Created with Sketch.</desc>
    <defs></defs>
    <g id="Page-1" stroke="none" stroke-width="1" fill="none" fill-rule="evenodd">
        <g id="Artboard-6" fill-rule="nonzero" fill="#FFFFFF">
            <g id="supur-copy" transform="translate(18.000000, 11.000000)">
                <path d="M30.7443565,41.4188865 C30.7443565,39.7886906 29.9955582,38.387762 28.4979391,37.2160587 C27.0003201,36.0443554 24.2225199,35.0170078 20.1644554,34.133985 C14.0451517,32.8434133 9.39938167,30.8906037 6.22700581,28.2754978 C3.05462996,25.6603919 1.46846582,22.1113727 1.46846582,17.628334 C1.46846582,12.9075584 3.36864214,8.8830726 7.16905182,5.55475598 C10.9694614,2.22643934 16.0258628,0.562305984 22.3384077,0.562305984 C28.9408143,0.562305984 34.2307119,2.22643934 38.2082593,5.55475598 C42.1858067,8.8830726 44.0940346,13.026425 43.9330003,17.9849376 L43.8363802,18.2905978 L30.2129459,18.2905978 C30.2129459,16.0830408 29.536612,14.2830599 28.1839238,12.8906008 C26.8312356,11.4981419 24.8827498,10.8019228 22.3384077,10.8019228 C20.0839274,10.8019228 18.2964734,11.3962561 16.9759921,12.5849407 C15.6555108,13.7736252 14.99528,15.2339871 14.99528,16.9660702 C14.99528,18.664191 15.6796655,20.0481386 17.0484571,21.1179547 C18.4172488,22.1877707 21.1950489,23.1471946 25.3819409,23.9962549 C31.7911063,25.3547515 36.5657018,27.3500134 39.7058709,29.9821006 C42.8460398,32.6141877 44.4161008,36.2396211 44.4161008,40.8585095 C44.4161008,45.817022 42.4032022,49.8754697 38.3773445,53.0339743 C34.3514868,56.1924788 29.0374344,57.7717074 22.4350278,57.7717074 C15.4783457,57.7717074 9.97910662,55.9122931 5.9371455,52.1934087 C1.89518439,48.4745243 -0.0291467132,44.2377766 0.164094456,39.4830386 L0.260714557,39.1773783 L13.159498,39.1773783 C13.2561186,42.1321085 14.1740004,44.2717085 15.913171,45.5962426 C17.6523414,46.9207768 19.9228911,47.583034 22.7248881,47.583034 C25.3336439,47.583034 27.3223877,47.031153 28.6911793,45.9273745 C30.0599709,44.823596 30.7443565,43.3207817 30.7443565,41.4188865 Z" id="supur"></path>
            </g>
        </g>
    </g>
</svg>