<?xml version="1.0" encoding="UTF-8"?>
<svg width="1321px" height="387px" viewBox="0 0 1321 387" version="1.1" xmlns="http://www.w3.org/2000/svg" xmlns:xlink="http://www.w3.org/1999/xlink">
    <!-- Generator: Sketch 45.1 (43504) - http://www.bohemiancoding.com/sketch -->
    <title>Shape</title>
    <desc>Created with Sketch.</desc>
    <defs></defs>
    <g id="Page-1" stroke="none" stroke-width="1" fill="none" fill-rule="evenodd">
        <g id="Artboard" transform="translate(-319.000000, -294.000000)" fill-rule="nonzero" fill="#FFFFFF">
            <g id="Graphic-Black" transform="translate(319.000000, 294.000000)">
                <path d="M0,235 C3.17,235 6.33,235.14 9.5,235.11 C23.14,234.97 33.71,225.23 34.22,211.49 C34.83,195.01 34.9,178.49 34.97,162.01 C35.09,135.51 34.85,109.01 35.1,82.52 C35.3,61.25 56.87,47.24 76.1,55.86 C88.77,61.55 93.99,72.1 93.99,85.62 C93.99,133.946667 93.99,182.28 93.99,230.62 C93.99,259.453333 93.99,288.283333 93.99,317.11 C93.99,327.9 101.55,337.92 111.9,339.99 C111.9,337.81 111.9,335.73 111.9,333.65 C111.826667,233.83 111.74,134.01 111.64,34.19 C111.64,23.27 114.33,13.77 123.42,6.93 C132.51,0.09 142.77,-1.16 153.1,3.5 C163.21,8.06 169.1,16.18 170.22,27.5 C170.33,28.66 170.38,29.83 170.52,30.98 C170.603632,31.2495347 170.74336,31.4983186 170.93,31.71 C174.78,32.34 178.65,32.58 182.27,33.64 C194.94,37.34 203.02,48.71 203.02,62.74 C203.02,106.4 203.02,150.066667 203.02,193.74 C203.02,204.63 207.77,212.53 217.38,217.55 C218.583466,218.061306 219.81951,218.492252 221.08,218.84 C221.08,213.08 221.08,207.84 221.08,202.52 C221.08,183.71 232.38,171.82 251.08,171.01 C251.72,171.01 252.35,170.87 253.08,170.78 C253.08,160.66 253.08,150.73 253.08,140.78 C253.08,131.17 256.77,123.27 264.32,117.34 C273.03,110.49 282.79,109.01 293.01,113.05 C303.23,117.09 309.47,124.67 311.22,135.64 C311.589812,138.626818 311.803436,141.630907 311.86,144.64 C312.5,156.64 321.18,166.98 333.18,168.04 C343.457706,168.948305 353.796516,168.924876 364.07,167.97 C376.25,166.82 384.93,155.66 384.98,142.61 C385.08,121.11 384.9,99.61 385.04,78.12 C385.178774,64.4500609 394.845416,52.7334243 408.24,50 C427.59,46.36 443.73,59.95 443.75,80.28 C443.75,108.6 443.48,136.92 443.33,165.28 C443.33,168.61 443.21,171.95 443.33,175.28 C443.92,188.96 454.64,200.49 466.48,200.28 C480.493431,200.058598 491.779999,188.714378 491.93,174.7 C492.13,162.37 491.93,150.04 491.93,137.7 C491.93,120.34 505.39,107.11 522.4,107.77 C539.41,108.43 551.56,122.68 550.75,139.94 C550.21,151.41 550.34,162.94 550.47,174.42 C550.57,183.42 554.71,190.42 562.2,195.28 C569.69,200.14 577.2,200.28 584.83,195.98 C593.17,191.27 597.83,184.09 597.92,174.49 C598.11,147.49 598.07,120.49 598.1,93.49 C598.1,77.12 609.28,65.01 626.01,63.26 C639.55,61.84 653.01,72.32 656.25,86.92 C656.749769,89.6972923 656.954241,92.5196737 656.86,95.34 C656.91,121.84 656.8,148.34 656.96,174.83 C657.04,187.57 668.77,198.2 682.17,198.13 C695.32,198.06 706.82,187.49 706.95,174.94 C707.17,153.28 707,131.61 707.25,109.94 C707.51,87.78 728.63,73.37 748.19,82.12 C759.72,87.28 765.81,96.58 765.88,109.33 C766.01,130.49 765.88,151.66 765.95,172.82 C765.95,185 773.87,194.82 785.87,197.63 C793.043948,199.281344 800.580441,197.635832 806.413224,193.144608 C812.246008,188.653384 815.763015,181.787737 816,174.43 C816.32,164.11 816.07,153.77 816.13,143.43 C816.22,128.85 827.47,115.6 841.01,114.03 C857.07,112.16 870.33,120.89 874.23,136.14 C874.820195,138.899153 875.07205,141.719932 874.98,144.54 C875.04,157.87 874.98,171.2 874.98,184.54 C874.98,199.54 885.62,210.84 899.78,211.03 C914.25,211.22 925.3,200.22 925.6,185.03 C925.83,173.2 925.42,161.36 925.82,149.54 C926.29,135.67 936.82,124.37 950.58,122.24 C964.291637,120.222865 977.534934,128.112044 982.29,141.13 C983.380447,144.440471 983.970289,147.895257 984.04,151.38 C984.29,158.54 983.97,165.71 984.11,172.87 C984.39,186.59 995.11,197.68 1008.22,198.03 C1022.15,198.41 1033.22,188.64 1034.4,174.6 C1034.76,170.46 1034.58,166.28 1034.56,162.11 C1034.48,145.11 1047.24,131.93 1063.82,131.93 C1071.66712,131.869734 1079.20137,135.003139 1084.69151,140.610213 C1090.18166,146.217287 1093.15561,153.815891 1092.93,161.66 C1092.78,171.66 1094.21,180.66 1102.57,187.16 C1110.12,193.04 1118.57,194.56 1127.47,190.96 C1136.37,187.36 1141.77,180.81 1143.16,171.26 C1143.49189,168.114914 1143.61882,164.951567 1143.54,161.79 C1143.78,144.67 1156.54,131.79 1173.16,131.93 C1189.43,132.1 1202.16,145.15 1201.95,162.01 C1201.87,170.01 1202.45,177.72 1208.21,183.94 C1215.09,191.36 1223.43,194.72 1233.42,191.63 C1243.41,188.54 1249.42,181.75 1251.13,171.4 C1251.50319,168.415472 1251.63695,165.405867 1251.53,162.4 C1251.6,144.33 1264,132 1282,132 C1295,132 1308,132 1321,132 L1321,136 L1281,136 C1267.51371,135.757997 1256.28086,146.286299 1255.65,159.76 C1255.41,163.58 1255.65,167.44 1255.21,171.23 C1253.46,185.79 1239.96,197.58 1226.07,196.88 C1210.74001,196.058711 1198.58222,183.653427 1198.07,168.31 C1197.91,161.66 1198.47,155.02 1194.9,148.87 C1189.47,139.52 1178.42,134.16 1168.19,136.26 C1157.00069,138.396924 1148.62277,147.753504 1147.73,159.11 C1147.53,161.76 1147.73,164.44 1147.63,167.11 C1147.21,183.91 1134.27,197.04 1118.24,196.96 C1101.92,196.88 1088.79,183.48 1089.14,166.47 C1089.36,156 1087.37,146.81 1078.32,140.58 C1070.12,134.93 1061.26,134.18 1052.32,138.81 C1043.38,143.44 1038.84,150.91 1038.57,160.95 C1038.44,165.78 1038.77,170.64 1038.31,175.43 C1037.06545,190.945548 1023.76006,202.69054 1008.21,202 C992.86,201.5 980.5,188.86 980.13,173.09 C979.96,165.93 980.19,158.76 980.13,151.59 C980,137.09 969.11,126 955,126 C940.89,126 930,136.77 929.72,151.37 C929.51,162.7 929.9,174.04 929.59,185.37 C929,206.87 908.88,220.64 889.52,213.02 C878.465228,208.736316 871.131163,198.154988 871,186.3 C870.87,171.97 871.08,157.63 870.93,143.3 C870.863689,130.424886 861.25582,119.597309 848.48,118 C836.222545,116.746161 824.854658,124.536208 821.6,136.42 C821.021647,139.008279 820.773007,141.659319 820.86,144.31 C820.7,162.47 820.71,180.63 820.49,198.8 C820.29,215.36 810.04,227.2 794.49,229.12 C786.379088,230.131308 778.218997,227.663143 772.028273,222.326048 C765.837549,216.988954 762.194391,209.281405 762,201.11 C761.76,183.95 762.06,166.78 761.87,149.62 C761.75,138.96 756.58,131.1 746.87,126.75 C737.16,122.4 727.94,124 719.87,130.89 C713.78,136.08 711.5,142.89 711.52,150.89 C711.58,172.716667 711.463333,194.543333 711.17,216.37 C710.98,231.64 700.87,243.06 686.01,245.32 C669.24,247.86 653.3,235 653,218 C652.59,197.51 653,177 652.56,156.52 C652.43,150.34 651.88,143.68 649.46,138.13 C644.92,127.72 632.66,122.58 621.87,125.07 C610.553902,127.584118 602.479276,137.588189 602.41,149.18 C602.21,158.51 602.57,167.86 602.03,177.18 C601.24,190.89 588.88,202.74 575.6,203.18 C561.94,203.62 548.53,192.57 547.09,178.8 C546.21,170.39 546.68,161.8 546.53,153.34 C546.43,147.51 546.39,141.68 546.17,135.86 C545.64,121.86 534.39,111.8 519.52,111.92 C507.12,112.02 496.13,123.44 496.04,136.51 C495.95,149.58 496.04,162.51 496.04,175.51 C496.04,190.11 484.12,203.13 470.04,204.07 C455.054815,205.252583 441.781084,194.461075 439.88,179.55 C439.52743,176.740802 439.36373,173.911114 439.39,171.08 C439.3,140.25 439.3,109.42 439.16,78.6 C439.1,65.77 429.79,55.29 417.59,53.95 C403.93,52.45 392.49,60.21 389.59,73.13 C389.129055,75.581767 388.937916,78.07663 389.02,80.57 C389.02,100.73 389.02,120.9 389.02,141.06 C389.02,159.89 377.46,171.89 358.53,172.98 C345.44,173.73 335.66,183.05 334.82,196.11 C334.33,203.74 334.82,211.44 334.36,219.11 C333.42,233.5 321.96,245.11 308.21,246.11 C293.14,247.21 279.35,237.87 276.65,223.53 C275.16,215.6 275.65,207.29 275.29,199.14 C274.84,188.99 269.61,182.05 260.8,177.53 C259.743275,177.167253 258.655328,176.902798 257.55,176.74 C257.55,183.02 257.71,188.93 257.55,194.84 C257.08,209.61 247.88,220.76 233.84,223.6 C231.049091,224.006785 228.238399,224.26382 225.42,224.37 C225.33,225.63 225.18,227.06 225.12,228.49 C225.574533,244.478098 213.106784,257.868477 197.126949,258.554577 C181.147114,259.240677 167.577523,246.968219 166.66,231 C166.422078,229.00901 166.308524,227.005123 166.32,225 C166.233333,171.506667 166.156667,118.013333 166.09,64.52 C166.09,55.75 166.09,46.98 166.09,38.14 C157.76,39.68 150.21,47.39 149.03,56.51 C148.14,63.41 148.28,70.46 148.28,77.44 C148.233333,157.086667 148.2,236.736667 148.18,316.39 C148.18,333.85 136.18,344.79 115.85,346.03 C115.85,349.03 115.85,352.13 115.85,355.22 C115.71,373.16 103.19,386.22 86.23,386.14 C69.54,386.05 57.14,372.97 57.1,355.28 C57.0333333,325.946667 57.0033333,296.613333 57.01,267.28 C57.01,249.96 46.71,239.43 29.48,239.4 C19.66,239.4 9.84,239.78 0.02,239.99 L0,235 Z M25.55,234.37 L26.27,235.37 C27.58,235.37 28.9,235.37 30.21,235.37 C49.13,235.85 60.85,247.77 61,266.71 C61,271.38 61.07,276.04 61.07,280.71 C61.07,306.04 60.91,331.37 61.13,356.71 C61.025401,365.844006 65.8602947,374.322868 73.7744557,378.884344 C81.6886168,383.44582 91.4488859,383.379156 99.3,378.71 C109.3,372.88 115.4,357.08 111.7,346.24 C111.181192,345.260687 110.314162,344.511402 109.27,344.14 C95.56,338.56 89.48,328.06 89.49,313.63 C89.49,236.47 89.5233333,159.313333 89.59,82.16 C89.59,67.74 75.92,55.56 61.59,57.54 C48.05,59.42 39.08,69.73 39.01,83.68 C38.82,123.5 38.55,163.31 38.6,203.13 C38.66,215.45 36.83,226.69 25.55,234.37 Z M115.84,341.49 C117.197782,341.651795 118.562837,341.745246 119.93,341.77 C133.83,341.15 144.16,330.28 144.2,315.77 C144.31,280.77 144.2,245.77 144.2,210.77 C144.2,161.79 144.2,112.81 144.2,63.83 C144.2,49.7 150.33,39.7 163.38,33.9 C164.910345,32.9687278 165.92238,31.3804971 166.12,29.6 C166.34,16.15 154.96,4.96 141.3,4.86 C134.651929,4.76118912 128.239821,7.32208617 123.488906,11.9734753 C118.737992,16.6248644 116.041938,22.9813274 116,29.63 C115.96,131.423333 115.92,233.22 115.88,335.02 C115.84,337 115.84,339 115.84,341.49 Z M220.7,223.38 C205.11,217.72 198.61,206.56 198.78,189.97 C199.23,147.5 198.99,105.02 198.95,62.55 C198.95,48.65 189.87,38.26 176.4,36.37 C170.92,35.6 170.27,36.1 170.31,41.55 C170.4,55.04 170.67,68.55 170.65,82 C170.58,129.46 170.36,176.93 170.4,224.39 C170.30336,229.040788 171.122229,233.665188 172.81,238 C177.663396,249.357911 190.191621,255.350229 202.08,252 C214.88,248.5 222,237.6 220.7,223.38 Z M343.38,173.67 L342.57,172.54 C340.42,172.54 338.26,172.67 336.12,172.54 C319.31,171.4 308.17,159.78 307.73,142.98 C307.73,141.32 307.73,139.64 307.51,137.98 C305.89,124.05 294.62,114.38 280.79,114.98 C267.6,115.59 257.14,126.7 257.05,140.51 C256.99,149.33 257.47,158.15 257.4,166.97 C257.4,170.22 258.23,171.79 261.45,173.14 C271.1,177.2 277.71,184.39 279,195.01 C279.94,202.73 279.41,210.61 279.8,218.41 C280.54101,229.770808 288.737149,239.257421 299.87,241.64 C310.45,243.98 321.59,238.84 327.16,229.36 C330.75,223.24 330.58,216.63 330.43,209.96 C330.1,196.31 329.84,182.67 343.38,173.67 Z M652.3,132.67 C652.3,118.31 653.02,103.86 652.09,89.51 C651.23,76.14 639.76,67.24 625.86,67.36 C614.64,67.46 603.3,77.36 602.55,89.51 C601.67,103.88 602.34,118.34 602.34,133.01 C624.44,115.79 631.93,115.78 652.3,132.67 Z M656.85,189 C656.85,199.13 656.66,208.28 656.85,217.42 C657.276633,230.914696 668.286248,241.662762 681.7873,241.76488 C695.288352,241.866998 706.459288,231.286698 707.09,217.8 C707.39,209.8 707.21,201.8 707.2,193.8 C707.2,192.43 706.97,191.06 706.8,189.17 C694.49,204.76 673.1,207.92 656.85,189 Z M711.63,133.6 C724,118 745.5,114.39 762,133.68 C762,124.95 762.1,116.87 762,108.8 C761.953828,95.7164312 751.891455,84.8499373 738.85,83.8 C725.12,82.8 713.23,91.9 711.85,105.56 C710.9,114.56 711.64,123.73 711.64,133.61 L711.63,133.6 Z M766,188.95 C766,193.8 765.85,197.77 766,201.73 C766.69,217.51 782.63,228.84 797.87,224.44 C812.17,220.32 819.21,206.83 815.87,189.85 C795.17,206.71 784.38,206.66 766,188.95 Z M252.86,175.41 C240.35,174 228.43,181.54 226.09,193.69 C224.46,202.16 225.09,211.06 224.67,219.69 C238.73,220.76 250.88,212.69 252.67,200.48 C253.81,192.39 252.86,184 252.86,175.41 Z" id="Shape"></path>
            </g>
        </g>
    </g>
</svg>