<?xml version="1.0" encoding="UTF-8"?>
<svg width="925px" height="309px" viewBox="0 0 925 309" version="1.1" xmlns="http://www.w3.org/2000/svg" xmlns:xlink="http://www.w3.org/1999/xlink">
    <!-- Generator: Sketch 44.1 (41455) - http://www.bohemiancoding.com/sketch -->
    <title>Path-5</title>
    <desc>Created with Sketch.</desc>
    <defs></defs>
    <g id="Page-1" stroke="none" stroke-width="1" fill="none" fill-rule="evenodd">
        <g id="Artboard-Copy-2" transform="translate(-265.000000, -1486.000000)" stroke="#FFFFFF" stroke-width="4">
            <g id="graphic" transform="translate(257.000000, 1488.000000)">
                <path d="M8.5,147.82326 C8.5,147.82326 35.6213538,148.536896 59.7434158,147.82326 C83.8654778,147.109625 88.1559003,144.363826 105.76647,145.24266 C123.37704,146.121492 162.991448,166.484919 182.12347,125.469248 C194.420821,99.105899 204.055059,78.0306808 200.0109,47.5978107 C199.125811,40.9373965 196.350745,29.1743877 190.719376,19.8232969 C185.088007,10.472206 173.826819,4.43265814 166.857955,2.84378934 C118.566257,-8.16649576 105.040549,17.5160558 102.533729,59.762967 C101.912935,70.2250805 102.829405,91.7453786 105.76647,101.676773 C108.596308,111.245586 111.472272,119.436572 117.310037,127.007654 C132.064211,146.142553 153.930536,141.276695 174.307079,150.180272 C192.439932,158.103463 200.650201,165.977319 215.460167,180.538822 C232.525469,197.317824 244.606106,258.741563 227.469814,281.281637 C215.472248,297.062531 197.37731,302.448617 179.77537,304.367303 C173.671241,305.032678 167.485685,304.629562 161.384245,303.932545 C132.776667,300.664465 123.558556,268.82055 135.27573,240.106921 C138.989489,231.006135 150.372808,213.716463 161.384245,203.863605 C183.66093,183.930784 199.437597,182.995049 221.798291,171.38095 C251.356235,156.028612 278.183011,132.012971 294.463151,99.0526956 C298.355239,91.1728925 309.803883,65.3812871 306.615582,47.5978107 C303.42728,29.8143342 287.267213,23.5065924 282.735019,22.4225597 C278.202826,21.338527 271.626234,21.2894604 265.629213,22.4225597 C259.632191,23.5556591 255.714749,25.3531505 250.493716,28.870098 C245.272682,32.3870454 235.414823,39.2091501 227.469814,74.3974956 C221.373353,101.398642 222.678541,140.093015 235.414823,164.431028 C236.520647,166.544169 246.329868,190.58025 262.662002,207.003182 C278.994135,223.426113 294.81629,225.85549 298.866507,226.674858 C308.13529,228.549951 319.211739,224.878151 325.261023,221.601744 C329.690836,219.202473 333.978937,213.619446 336.291901,207.003182 C338.604866,200.386918 338.67902,194.176633 338.924853,190.268093 C340.658973,162.697115 340.33732,134.985975 342.187402,107.424898 C343.829319,82.9648906 351.132465,67.5877807 364.155402,59.762967 C376.946972,52.0771701 388.431727,52.6126874 400.459519,59.762967 C412.487309,66.9132466 421.526394,81.0205984 421.526394,100.034007 C421.526394,119.047416 420.809884,120.806122 420.01706,131.15649 C418.823857,146.733803 415.570348,162.160038 415.570348,177.790529 C415.570348,196.290295 414.672056,208.760169 422.090025,221.601744 C429.466009,234.370644 441.841035,234.370644 441.841035,234.370644 C458.798054,231.756718 462.1653,211.261058 463.042591,203.863605 C466.965885,170.781786 463.042591,99.0526956 469.685822,82.9935357 C472.116526,77.1176195 477.969232,64.6462571 493.087498,64.6462571 C508.205763,64.6462571 509.95426,80.377931 510.67742,92.5064778 C513.362072,137.532386 509.600926,137.331192 513.444082,170.918242 C514.871807,183.395769 526.745324,206.050639 541.224517,198.913571 C542.698816,198.186862 546.076503,196.80116 547.837569,193.646245 C549.598635,190.491331 550.419743,184.088313 550.419743,184.088313 C555.159459,161.601993 555.620489,107.424898 569.799194,101.676773 C583.977898,95.9286467 586.237503,107.100058 588.228275,115.71049 C591.98513,131.959549 591.601135,197.223689 617.410685,190.268093 C618.426985,189.994203 625.533039,187.467997 629.470268,177.790529 C633.407496,168.11306 635.979696,146.619492 636.88167,145.24266 C637.948707,143.613867 641.234629,131.15649 654.909841,131.15649 C668.585052,131.15649 674.157857,154.692441 674.157857,154.692441 C674.157857,154.692441 676.017674,174.138559 696.499047,174.138559 C702.079354,174.138559 705.029384,158.92875 711.173739,148.702094 C717.318095,138.475437 723.123529,139.233821 724.257804,139.171571 C725.871652,139.083001 732.302054,139.925997 737.01368,145.24266 C741.725307,150.559322 743.340715,174.138559 757.266662,171.38095 C771.192608,168.62334 774.499805,135.584815 785.5351,135.584815 C796.570395,135.584815 799.857371,168.239263 813.087729,168.239263 C826.318086,168.239263 828.944916,138.374588 836.573988,135.584815 C841.250765,133.874626 843.466974,143.556172 848.150298,145.24266 C854.94172,147.688284 859.433792,147.810342 866.552595,147.82326 C888.660975,147.863382 932.547158,147.82326 932.547158,147.82326" id="Path-5"></path>
            </g>
        </g>
    </g>
</svg>