<?xml version="1.0" encoding="UTF-8"?>
<svg width="1321px" height="387px" viewBox="0 0 1321 387" version="1.1" xmlns="http://www.w3.org/2000/svg" xmlns:xlink="http://www.w3.org/1999/xlink">
    <!-- Generator: Sketch 45.1 (43504) - http://www.bohemiancoding.com/sketch -->
    <title>Vector Black</title>
    <desc>Created with Sketch.</desc>
    <defs></defs>
    <g id="Page-1" stroke="none" stroke-width="1" fill="none" fill-rule="evenodd">
        <g id="Vector-Black" fill-rule="nonzero" fill="#FFFFFF">
            <path d="M1321,136 L1321,387 L0,387 C0,338 0,289 0,240 C9.82,239.79 19.64,239.39 29.46,239.41 C46.69,239.44 57,250 57,267.29 C57,296.623333 57.03,325.956667 57.09,355.29 C57.09,372.98 69.53,386.07 86.22,386.15 C103.22,386.24 115.7,373.15 115.84,355.23 C115.84,352.15 115.84,349.06 115.84,346.04 C136.13,344.81 148.14,333.86 148.17,316.4 C148.303333,236.753333 148.336667,157.103333 148.27,77.45 C148.27,70.45 148.13,63.45 149.02,56.52 C150.2,47.4 157.75,39.69 166.08,38.15 C166.08,46.99 166.08,55.76 166.08,64.53 C166.146667,118.023333 166.223333,171.516667 166.31,225.01 C166.298524,227.015123 166.412078,229.01901 166.65,231.01 C168.292952,246.380742 181.608907,257.821697 197.051764,257.130937 C212.494621,256.440176 224.735933,243.856043 225,228.4 C225.05,226.97 225.2,225.55 225.3,224.28 C228.118399,224.17382 230.929091,223.916785 233.72,223.51 C247.72,220.67 256.96,209.51 257.43,194.75 C257.62,188.85 257.43,182.93 257.43,176.65 C258.535328,176.812798 259.623275,177.077253 260.68,177.44 C269.49,181.96 274.68,188.89 275.17,199.05 C275.53,207.19 275.04,215.5 276.53,223.44 C279.23,237.79 293.02,247.13 308.09,246.02 C321.84,245.02 333.3,233.4 334.24,219.02 C334.74,211.39 334.24,203.69 334.7,196.02 C335.54,182.95 345.32,173.64 358.41,172.89 C377.34,171.8 388.85,159.81 388.9,140.97 C388.95,120.81 388.9,100.64 388.9,80.48 C388.817916,77.98663 389.009055,75.491767 389.47,73.04 C392.4,60.12 403.84,52.37 417.47,53.86 C429.67,55.2 438.99,65.68 439.04,78.51 C439.18,109.34 439.17,140.17 439.27,170.99 C439.24373,173.821114 439.40743,176.650802 439.76,179.46 C441.652143,194.412491 454.978273,205.226752 470,204 C484.09,203.06 496,190 496,175.44 C496,162.44 495.91,149.44 496,136.44 C496.09,123.44 507.09,111.94 519.48,111.85 C534.35,111.73 545.61,121.85 546.13,135.79 C546.35,141.61 546.39,147.44 546.49,153.27 C546.64,161.76 546.16,170.27 547.05,178.73 C548.5,192.5 561.91,203.55 575.56,203.11 C588.84,202.68 601.2,190.82 601.99,177.11 C602.53,167.81 602.16,158.46 602.37,149.11 C602.439276,137.518189 610.513902,127.514118 621.83,125 C632.62,122.51 644.83,127.65 649.42,138.06 C651.84,143.6 652.42,150.27 652.52,156.45 C652.95,176.94 652.52,197.45 652.96,217.93 C653.3,234.93 669.24,247.83 686.06,245.28 C700.92,243.03 711.06,231.61 711.22,216.33 C711.493333,194.503333 711.61,172.676667 711.57,150.85 C711.57,142.85 713.83,136.03 719.92,130.85 C728,123.97 737.23,122.34 746.92,126.71 C756.61,131.08 761.76,138.92 761.92,149.58 C762.11,166.74 761.81,183.91 762.05,201.07 C762.229868,209.254161 765.869777,216.9787 772.06682,222.327486 C778.263862,227.676271 786.437428,230.148167 794.56,229.13 C810.08,227.21 820.33,215.37 820.56,198.81 C820.78,180.65 820.77,162.49 820.93,144.32 C820.843007,141.669319 821.091647,139.018279 821.67,136.43 C824.916455,124.570684 836.244702,116.783306 848.48,118 C861.283571,119.564982 870.92921,130.401334 871,143.3 C871.14,157.63 870.93,171.96 871.07,186.3 C871.197927,198.130252 878.499445,208.696676 889.52,213 C908.89,220.62 929,206.86 929.59,185.35 C929.9,174.03 929.51,162.68 929.72,151.35 C930,136.77 940.94,125.93 955,126 C969.06,126.07 979.92,137.11 980.07,151.66 C980.15,158.83 979.92,166 980.07,173.16 C980.44,188.93 992.8,201.57 1008.15,202.07 C1023.72537,202.764491 1037.0459,190.983498 1038.26,175.44 C1038.71,170.65 1038.39,165.79 1038.52,160.96 C1038.79,150.96 1043.38,143.43 1052.27,138.82 C1061.16,134.21 1070.06,134.94 1078.27,140.59 C1087.27,146.82 1089.27,156.01 1089.09,166.48 C1088.73,183.48 1101.87,196.89 1118.19,196.97 C1134.19,197.05 1147.19,183.92 1147.58,167.12 C1147.65,164.46 1147.47,161.78 1147.68,159.12 C1148.57277,147.763504 1156.95069,138.406924 1168.14,136.27 C1178.38,134.18 1189.42,139.53 1194.85,148.88 C1198.42,155.03 1197.85,161.67 1198.02,168.32 C1198.53222,183.663427 1210.69001,196.068711 1226.02,196.89 C1239.91,197.59 1253.41,185.8 1255.16,171.24 C1255.61,167.45 1255.36,163.59 1255.6,159.77 C1256.22603,146.272576 1267.49075,135.730752 1281,136 L1321,136 Z" id="Shape"></path>
            <path d="M0,235 L0,0 L1321,0 L1321,132 C1308,132 1295,132 1282,132 C1264,132 1251.59,144.33 1251.54,162.44 C1251.64695,165.445867 1251.51319,168.455472 1251.14,171.44 C1249.43,181.78 1243.35,188.6 1233.43,191.67 C1223.51,194.74 1215.1,191.4 1208.22,183.98 C1202.45,177.76 1201.88,170.08 1201.96,162.05 C1202.13,145.19 1189.44,132.14 1173.17,131.97 C1156.58,131.8 1143.8,144.7 1143.55,161.83 C1143.62882,164.991567 1143.50189,168.154914 1143.17,171.3 C1141.78,180.85 1136.32,187.44 1127.48,191 C1118.64,194.56 1110.13,193.08 1102.58,187.2 C1094.22,180.69 1092.79,171.67 1092.94,161.7 C1093.16561,153.855891 1090.19166,146.257287 1084.70151,140.650213 C1079.21137,135.043139 1071.67712,131.909734 1063.83,131.97 C1047.25,131.97 1034.49,145.14 1034.57,162.15 C1034.57,166.31 1034.77,170.5 1034.41,174.64 C1033.19,188.64 1022.17,198.45 1008.23,198.07 C995.1,197.71 984.39,186.63 984.12,172.91 C983.98,165.75 984.3,158.57 984.05,151.42 C983.980289,147.935257 983.390447,144.480471 982.3,141.17 C977.544934,128.152044 964.301637,120.262865 950.59,122.28 C936.85,124.41 926.31,135.71 925.83,149.58 C925.43,161.4 925.83,173.24 925.61,185.07 C925.31,200.29 914.26,211.29 899.79,211.07 C885.63,210.88 875.03,199.6 874.99,184.58 C874.99,171.25 875.06,157.92 874.99,144.58 C875.08205,141.759932 874.830195,138.939153 874.24,136.18 C870.34,120.93 857.08,112.18 841.02,114.07 C827.48,115.65 816.22,128.9 816.14,143.47 C816.08,153.8 816.33,164.14 816.01,174.47 C815.763065,181.818002 812.245114,188.671131 806.418414,193.154845 C800.591715,197.638558 793.06608,199.2836 785.9,197.64 C773.93,194.75 766,185 766,172.79 C766,151.63 766.06,130.46 765.93,109.3 C765.85,96.55 759.77,87.25 748.24,82.09 C728.68,73.34 707.56,87.75 707.3,109.91 C707.05,131.57 707.22,153.24 707,174.91 C706.87,187.46 695.37,198.04 682.22,198.1 C668.83,198.17 657.09,187.54 657.01,174.8 C656.85,148.31 656.96,121.8 656.91,95.31 C657.004241,92.4896737 656.799769,89.6672923 656.3,86.89 C653.1,72.29 639.6,61.82 626.06,63.23 C609.33,64.98 598.16,77.09 598.15,93.46 C598.15,120.46 598.15,147.46 597.97,174.46 C597.9,184.07 593.23,191.24 584.88,195.95 C577.23,200.27 569.61,200.06 562.25,195.25 C554.89,190.44 550.62,183.36 550.52,174.39 C550.39,162.9 550.26,151.39 550.8,139.91 C551.61,122.65 539.33,108.4 522.45,107.74 C505.57,107.08 492,120.29 492,137.65 C492,149.98 492.17,162.32 492,174.65 C491.849999,188.664378 480.563431,200.008598 466.55,200.23 C454.71,200.44 443.99,188.91 443.4,175.23 C443.26,171.9 443.4,168.57 443.4,165.23 C443.55,136.91 443.84,108.59 443.82,80.23 C443.82,59.9 427.66,46.31 408.31,49.95 C394.879013,52.6365302 385.159029,64.3538846 385,78.05 C384.86,99.55 385,121.05 384.94,142.54 C384.88,155.54 376.2,166.75 364.03,167.9 C353.756516,168.854876 343.417706,168.878305 333.14,167.97 C321.14,166.92 312.47,156.61 311.82,144.57 C311.763436,141.560907 311.549812,138.556818 311.18,135.57 C309.44,124.57 303.18,117 292.97,112.98 C282.76,108.96 272.97,110.43 264.28,117.27 C256.73,123.21 253.04,131.1 253.04,140.71 C253.04,150.64 253.04,160.56 253.04,170.71 C252.26,170.8 251.63,170.91 251.04,170.94 C232.35,171.76 221.04,183.64 221.04,202.45 C221.04,207.73 221.04,213.01 221.04,218.77 C219.77951,218.422252 218.543466,217.991306 217.34,217.48 C207.74,212.48 202.97,204.56 202.98,193.67 C203.033333,150.01 203.033333,106.343333 202.98,62.67 C202.98,48.67 194.9,37.27 182.23,33.57 C178.6,32.51 174.74,32.27 170.89,31.64 C170.70336,31.4283186 170.563632,31.1795347 170.48,30.91 C170.34,29.75 170.29,28.59 170.18,27.43 C169.11,16.13 163.18,8.02 153.06,3.43 C142.73,-1.23 132.59,-0.07 123.38,6.86 C114.17,13.79 111.59,23.2 111.6,34.12 C111.746667,133.94 111.833333,233.76 111.86,333.58 C111.86,335.66 111.86,337.74 111.86,339.92 C101.51,337.84 93.94,327.83 93.95,317.04 C93.95,288.206667 93.95,259.376667 93.95,230.55 C93.95,182.223333 93.95,133.89 93.95,85.55 C93.95,72.03 88.72,61.49 76.06,55.79 C56.88,47.17 35.31,61.17 35.06,82.45 C34.81,108.94 35.06,135.45 34.93,161.94 C34.85,178.44 34.79,194.94 34.18,211.42 C33.71,225.23 23.13,235 9.5,235.11 C6.33,235.14 3.17,235 0,235 Z" id="Shape"></path>
            <path d="M0,235 C3.17,235 6.33,235.14 9.5,235.11 C23.14,234.97 33.71,225.23 34.22,211.49 C34.83,195.01 34.9,178.49 34.97,162.01 C35.09,135.51 34.85,109.01 35.1,82.52 C35.3,61.25 56.87,47.24 76.1,55.86 C88.77,61.55 93.99,72.1 93.99,85.62 C93.99,133.946667 93.99,182.28 93.99,230.62 C93.99,259.453333 93.99,288.283333 93.99,317.11 C93.99,327.9 101.55,337.92 111.9,339.99 C111.9,337.81 111.9,335.73 111.9,333.65 C111.826667,233.83 111.74,134.01 111.64,34.19 C111.64,23.27 114.33,13.77 123.42,6.93 C132.51,0.09 142.77,-1.16 153.1,3.5 C163.21,8.06 169.1,16.18 170.22,27.5 C170.33,28.66 170.38,29.83 170.52,30.98 C170.603632,31.2495347 170.74336,31.4983186 170.93,31.71 C174.78,32.34 178.65,32.58 182.27,33.64 C194.94,37.34 203.02,48.71 203.02,62.74 C203.02,106.4 203.02,150.066667 203.02,193.74 C203.02,204.63 207.77,212.53 217.38,217.55 C218.583466,218.061306 219.81951,218.492252 221.08,218.84 C221.08,213.08 221.08,207.84 221.08,202.52 C221.08,183.71 232.38,171.82 251.08,171.01 C251.72,171.01 252.35,170.87 253.08,170.78 C253.08,160.66 253.08,150.73 253.08,140.78 C253.08,131.17 256.77,123.27 264.32,117.34 C273.03,110.49 282.79,109.01 293.01,113.05 C303.23,117.09 309.47,124.67 311.22,135.64 C311.589812,138.626818 311.803436,141.630907 311.86,144.64 C312.5,156.64 321.18,166.98 333.18,168.04 C343.457706,168.948305 353.796516,168.924876 364.07,167.97 C376.25,166.82 384.93,155.66 384.98,142.61 C385.08,121.11 384.9,99.61 385.04,78.12 C385.178774,64.4500609 394.845416,52.7334243 408.24,50 C427.59,46.36 443.73,59.95 443.75,80.28 C443.75,108.6 443.48,136.92 443.33,165.28 C443.33,168.61 443.21,171.95 443.33,175.28 C443.92,188.96 454.64,200.49 466.48,200.28 C480.493431,200.058598 491.779999,188.714378 491.93,174.7 C492.13,162.37 491.93,150.04 491.93,137.7 C491.93,120.34 505.39,107.11 522.4,107.77 C539.41,108.43 551.56,122.68 550.75,139.94 C550.21,151.41 550.34,162.94 550.47,174.42 C550.57,183.42 554.71,190.42 562.2,195.28 C569.69,200.14 577.2,200.28 584.83,195.98 C593.17,191.27 597.83,184.09 597.92,174.49 C598.11,147.49 598.07,120.49 598.1,93.49 C598.1,77.12 609.28,65.01 626.01,63.26 C639.55,61.84 653.01,72.32 656.25,86.92 C656.749769,89.6972923 656.954241,92.5196737 656.86,95.34 C656.91,121.84 656.8,148.34 656.96,174.83 C657.04,187.57 668.77,198.2 682.17,198.13 C695.32,198.06 706.82,187.49 706.95,174.94 C707.17,153.28 707,131.61 707.25,109.94 C707.51,87.78 728.63,73.37 748.19,82.12 C759.72,87.28 765.81,96.58 765.88,109.33 C766.01,130.49 765.88,151.66 765.95,172.82 C765.95,185 773.87,194.82 785.87,197.63 C793.043948,199.281344 800.580441,197.635832 806.413224,193.144608 C812.246008,188.653384 815.763015,181.787737 816,174.43 C816.32,164.11 816.07,153.77 816.13,143.43 C816.22,128.85 827.47,115.6 841.01,114.03 C857.07,112.16 870.33,120.89 874.23,136.14 C874.820195,138.899153 875.07205,141.719932 874.98,144.54 C875.04,157.87 874.98,171.2 874.98,184.54 C874.98,199.54 885.62,210.84 899.78,211.03 C914.25,211.22 925.3,200.22 925.6,185.03 C925.83,173.2 925.42,161.36 925.82,149.54 C926.29,135.67 936.82,124.37 950.58,122.24 C964.291637,120.222865 977.534934,128.112044 982.29,141.13 C983.380447,144.440471 983.970289,147.895257 984.04,151.38 C984.29,158.54 983.97,165.71 984.11,172.87 C984.39,186.59 995.11,197.68 1008.22,198.03 C1022.15,198.41 1033.22,188.64 1034.4,174.6 C1034.76,170.46 1034.58,166.28 1034.56,162.11 C1034.48,145.11 1047.24,131.93 1063.82,131.93 C1071.66712,131.869734 1079.20137,135.003139 1084.69151,140.610213 C1090.18166,146.217287 1093.15561,153.815891 1092.93,161.66 C1092.78,171.66 1094.21,180.66 1102.57,187.16 C1110.12,193.04 1118.57,194.56 1127.47,190.96 C1136.37,187.36 1141.77,180.81 1143.16,171.26 C1143.49189,168.114914 1143.61882,164.951567 1143.54,161.79 C1143.78,144.67 1156.54,131.79 1173.16,131.93 C1189.43,132.1 1202.16,145.15 1201.95,162.01 C1201.87,170.01 1202.45,177.72 1208.21,183.94 C1215.09,191.36 1223.43,194.72 1233.42,191.63 C1243.41,188.54 1249.42,181.75 1251.13,171.4 C1251.50319,168.415472 1251.63695,165.405867 1251.53,162.4 C1251.6,144.33 1264,132 1282,132 C1295,132 1308,132 1321,132 L1321,136 L1281,136 C1267.51371,135.757997 1256.28086,146.286299 1255.65,159.76 C1255.41,163.58 1255.65,167.44 1255.21,171.23 C1253.46,185.79 1239.96,197.58 1226.07,196.88 C1210.74001,196.058711 1198.58222,183.653427 1198.07,168.31 C1197.91,161.66 1198.47,155.02 1194.9,148.87 C1189.47,139.52 1178.42,134.16 1168.19,136.26 C1157.00069,138.396924 1148.62277,147.753504 1147.73,159.11 C1147.53,161.76 1147.73,164.44 1147.63,167.11 C1147.21,183.91 1134.27,197.04 1118.24,196.96 C1101.92,196.88 1088.79,183.48 1089.14,166.47 C1089.36,156 1087.37,146.81 1078.32,140.58 C1070.12,134.93 1061.26,134.18 1052.32,138.81 C1043.38,143.44 1038.84,150.91 1038.57,160.95 C1038.44,165.78 1038.77,170.64 1038.31,175.43 C1037.06545,190.945548 1023.76006,202.69054 1008.21,202 C992.86,201.5 980.5,188.86 980.13,173.09 C979.96,165.93 980.19,158.76 980.13,151.59 C980,137.09 969.11,126 955,126 C940.89,126 930,136.77 929.72,151.37 C929.51,162.7 929.9,174.04 929.59,185.37 C929,206.87 908.88,220.64 889.52,213.02 C878.465228,208.736316 871.131163,198.154988 871,186.3 C870.87,171.97 871.08,157.63 870.93,143.3 C870.863689,130.424886 861.25582,119.597309 848.48,118 C836.222545,116.746161 824.854658,124.536208 821.6,136.42 C821.021647,139.008279 820.773007,141.659319 820.86,144.31 C820.7,162.47 820.71,180.63 820.49,198.8 C820.29,215.36 810.04,227.2 794.49,229.12 C786.379088,230.131308 778.218997,227.663143 772.028273,222.326048 C765.837549,216.988954 762.194391,209.281405 762,201.11 C761.76,183.95 762.06,166.78 761.87,149.62 C761.75,138.96 756.58,131.1 746.87,126.75 C737.16,122.4 727.94,124 719.87,130.89 C713.78,136.08 711.5,142.89 711.52,150.89 C711.58,172.716667 711.463333,194.543333 711.17,216.37 C710.98,231.64 700.87,243.06 686.01,245.32 C669.24,247.86 653.3,235 653,218 C652.59,197.51 653,177 652.56,156.52 C652.43,150.34 651.88,143.68 649.46,138.13 C644.92,127.72 632.66,122.58 621.87,125.07 C610.553902,127.584118 602.479276,137.588189 602.41,149.18 C602.21,158.51 602.57,167.86 602.03,177.18 C601.24,190.89 588.88,202.74 575.6,203.18 C561.94,203.62 548.53,192.57 547.09,178.8 C546.21,170.39 546.68,161.8 546.53,153.34 C546.43,147.51 546.39,141.68 546.17,135.86 C545.64,121.86 534.39,111.8 519.52,111.92 C507.12,112.02 496.13,123.44 496.04,136.51 C495.95,149.58 496.04,162.51 496.04,175.51 C496.04,190.11 484.12,203.13 470.04,204.07 C455.054815,205.252583 441.781084,194.461075 439.88,179.55 C439.52743,176.740802 439.36373,173.911114 439.39,171.08 C439.3,140.25 439.3,109.42 439.16,78.6 C439.1,65.77 429.79,55.29 417.59,53.95 C403.93,52.45 392.49,60.21 389.59,73.13 C389.129055,75.581767 388.937916,78.07663 389.02,80.57 C389.02,100.73 389.02,120.9 389.02,141.06 C389.02,159.89 377.46,171.89 358.53,172.98 C345.44,173.73 335.66,183.05 334.82,196.11 C334.33,203.74 334.82,211.44 334.36,219.11 C333.42,233.5 321.96,245.11 308.21,246.11 C293.14,247.21 279.35,237.87 276.65,223.53 C275.16,215.6 275.65,207.29 275.29,199.14 C274.84,188.99 269.61,182.05 260.8,177.53 C259.743275,177.167253 258.655328,176.902798 257.55,176.74 C257.55,183.02 257.71,188.93 257.55,194.84 C257.08,209.61 247.88,220.76 233.84,223.6 C231.049091,224.006785 228.238399,224.26382 225.42,224.37 C225.33,225.63 225.18,227.06 225.12,228.49 C225.574533,244.478098 213.106784,257.868477 197.126949,258.554577 C181.147114,259.240677 167.577523,246.968219 166.66,231 C166.422078,229.00901 166.308524,227.005123 166.32,225 C166.233333,171.506667 166.156667,118.013333 166.09,64.52 C166.09,55.75 166.09,46.98 166.09,38.14 C157.76,39.68 150.21,47.39 149.03,56.51 C148.14,63.41 148.28,70.46 148.28,77.44 C148.233333,157.086667 148.2,236.736667 148.18,316.39 C148.18,333.85 136.18,344.79 115.85,346.03 C115.85,349.03 115.85,352.13 115.85,355.22 C115.71,373.16 103.19,386.22 86.23,386.14 C69.54,386.05 57.14,372.97 57.1,355.28 C57.0333333,325.946667 57.0033333,296.613333 57.01,267.28 C57.01,249.96 46.71,239.43 29.48,239.4 C19.66,239.4 9.84,239.78 0.02,239.99 L0,235 Z M25.55,234.37 L26.27,235.37 C27.58,235.37 28.9,235.37 30.21,235.37 C49.13,235.85 60.85,247.77 61,266.71 C61,271.38 61.07,276.04 61.07,280.71 C61.07,306.04 60.91,331.37 61.13,356.71 C61.025401,365.844006 65.8602947,374.322868 73.7744557,378.884344 C81.6886168,383.44582 91.4488859,383.379156 99.3,378.71 C109.3,372.88 115.4,357.08 111.7,346.24 C111.181192,345.260687 110.314162,344.511402 109.27,344.14 C95.56,338.56 89.48,328.06 89.49,313.63 C89.49,236.47 89.5233333,159.313333 89.59,82.16 C89.59,67.74 75.92,55.56 61.59,57.54 C48.05,59.42 39.08,69.73 39.01,83.68 C38.82,123.5 38.55,163.31 38.6,203.13 C38.66,215.45 36.83,226.69 25.55,234.37 Z M115.84,341.49 C117.197782,341.651795 118.562837,341.745246 119.93,341.77 C133.83,341.15 144.16,330.28 144.2,315.77 C144.31,280.77 144.2,245.77 144.2,210.77 C144.2,161.79 144.2,112.81 144.2,63.83 C144.2,49.7 150.33,39.7 163.38,33.9 C164.910345,32.9687278 165.92238,31.3804971 166.12,29.6 C166.34,16.15 154.96,4.96 141.3,4.86 C134.651929,4.76118912 128.239821,7.32208617 123.488906,11.9734753 C118.737992,16.6248644 116.041938,22.9813274 116,29.63 C115.96,131.423333 115.92,233.22 115.88,335.02 C115.84,337 115.84,339 115.84,341.49 Z M220.7,223.38 C205.11,217.72 198.61,206.56 198.78,189.97 C199.23,147.5 198.99,105.02 198.95,62.55 C198.95,48.65 189.87,38.26 176.4,36.37 C170.92,35.6 170.27,36.1 170.31,41.55 C170.4,55.04 170.67,68.55 170.65,82 C170.58,129.46 170.36,176.93 170.4,224.39 C170.30336,229.040788 171.122229,233.665188 172.81,238 C177.663396,249.357911 190.191621,255.350229 202.08,252 C214.88,248.5 222,237.6 220.7,223.38 Z M343.38,173.67 L342.57,172.54 C340.42,172.54 338.26,172.67 336.12,172.54 C319.31,171.4 308.17,159.78 307.73,142.98 C307.73,141.32 307.73,139.64 307.51,137.98 C305.89,124.05 294.62,114.38 280.79,114.98 C267.6,115.59 257.14,126.7 257.05,140.51 C256.99,149.33 257.47,158.15 257.4,166.97 C257.4,170.22 258.23,171.79 261.45,173.14 C271.1,177.2 277.71,184.39 279,195.01 C279.94,202.73 279.41,210.61 279.8,218.41 C280.54101,229.770808 288.737149,239.257421 299.87,241.64 C310.45,243.98 321.59,238.84 327.16,229.36 C330.75,223.24 330.58,216.63 330.43,209.96 C330.1,196.31 329.84,182.67 343.38,173.67 Z M652.3,132.67 C652.3,118.31 653.02,103.86 652.09,89.51 C651.23,76.14 639.76,67.24 625.86,67.36 C614.64,67.46 603.3,77.36 602.55,89.51 C601.67,103.88 602.34,118.34 602.34,133.01 C624.44,115.79 631.93,115.78 652.3,132.67 Z M656.85,189 C656.85,199.13 656.66,208.28 656.85,217.42 C657.276633,230.914696 668.286248,241.662762 681.7873,241.76488 C695.288352,241.866998 706.459288,231.286698 707.09,217.8 C707.39,209.8 707.21,201.8 707.2,193.8 C707.2,192.43 706.97,191.06 706.8,189.17 C694.49,204.76 673.1,207.92 656.85,189 Z M711.63,133.6 C724,118 745.5,114.39 762,133.68 C762,124.95 762.1,116.87 762,108.8 C761.953828,95.7164312 751.891455,84.8499373 738.85,83.8 C725.12,82.8 713.23,91.9 711.85,105.56 C710.9,114.56 711.64,123.73 711.64,133.61 L711.63,133.6 Z M766,188.95 C766,193.8 765.85,197.77 766,201.73 C766.69,217.51 782.63,228.84 797.87,224.44 C812.17,220.32 819.21,206.83 815.87,189.85 C795.17,206.71 784.38,206.66 766,188.95 Z M252.86,175.41 C240.35,174 228.43,181.54 226.09,193.69 C224.46,202.16 225.09,211.06 224.67,219.69 C238.73,220.76 250.88,212.69 252.67,200.48 C253.81,192.39 252.86,184 252.86,175.41 Z" id="Shape"></path>
            <path d="M25.55,234.37 C36.83,226.69 38.66,215.45 38.64,203.1 C38.59,163.28 38.86,123.47 39.05,83.65 C39.12,69.65 48.05,59.38 61.63,57.51 C75.92,55.51 89.63,67.71 89.63,82.13 C89.5566667,159.29 89.5233333,236.446667 89.53,313.6 C89.53,328.03 95.6,338.53 109.31,344.11 C110.354162,344.481402 111.221192,345.230687 111.74,346.21 C115.43,357.04 109.33,372.85 99.34,378.68 C91.4888859,383.349156 81.7286168,383.41582 73.8144557,378.854344 C65.9002947,374.292868 61.065401,365.814006 61.17,356.68 C60.95,331.35 61.12,306.02 61.11,280.68 C61.11,276.01 61.11,271.35 61.04,266.68 C60.89,247.74 49.18,235.82 30.25,235.34 C28.94,235.34 27.62,235.34 26.31,235.34 L25.55,234.37 Z" id="Shape"></path>
            <path d="M115.84,341.49 C115.84,338.97 115.84,336.99 115.84,335.01 C115.88,233.216667 115.92,131.42 115.96,29.62 C116.014998,22.9676941 118.726502,16.6132963 123.491195,11.9706785 C128.255888,7.32806082 134.678507,4.78235931 141.33,4.9 C154.99,4.99 166.33,16.19 166.15,29.64 C165.95238,31.4204971 164.940345,33.0087278 163.41,33.94 C150.41,39.74 144.22,49.74 144.23,63.87 C144.263333,112.85 144.263333,161.83 144.23,210.81 C144.23,245.81 144.3,280.81 144.23,315.81 C144.23,330.31 133.86,341.18 119.96,341.81 C118.582144,341.772978 117.207048,341.666175 115.84,341.49 Z" id="Shape"></path>
            <path d="M220.7,223.38 C222,237.6 214.88,248.5 202.08,252 C190.191621,255.350229 177.663396,249.357911 172.81,238 C171.126102,233.674556 170.3073,229.060731 170.4,224.42 C170.4,176.96 170.58,129.49 170.65,82.03 C170.65,68.55 170.4,55.03 170.31,41.58 C170.31,36.13 170.92,35.63 176.4,36.4 C189.87,38.29 198.93,48.68 198.95,62.58 C198.95,105.05 199.23,147.58 198.78,190 C198.6,206.55 205.11,217.72 220.7,223.38 Z" id="Shape"></path>
            <path d="M343.38,173.67 C329.85,182.67 330.11,196.32 330.38,209.98 C330.54,216.66 330.71,223.26 327.11,229.38 C321.54,238.86 310.4,244 299.82,241.66 C288.687149,239.277421 280.49101,229.790808 279.75,218.43 C279.36,210.63 279.89,202.75 278.95,195.03 C277.66,184.41 271.05,177.22 261.4,173.16 C258.18,171.81 257.32,170.24 257.35,166.99 C257.42,158.17 256.95,149.35 257,140.53 C257.09,126.72 267.55,115.61 280.74,115 C294.56,114.36 305.83,124 307.46,138 C307.65,139.65 307.64,141.33 307.68,143 C308.13,159.8 319.26,171.43 336.07,172.56 C338.21,172.71 340.37,172.56 342.52,172.56 L343.38,173.67 Z" id="Shape"></path>
            <path d="M652.3,132.67 C631.93,115.78 624.44,115.79 602.3,133.01 C602.3,118.34 601.63,103.88 602.51,89.51 C603.26,77.34 614.6,67.46 625.82,67.36 C639.73,67.24 651.19,76.14 652.05,89.51 C653,103.86 652.3,118.32 652.3,132.67 Z" id="Shape"></path>
            <path d="M656.85,189 C673.1,207.91 694.48,204.75 706.85,189.2 C707.02,191.09 707.24,192.46 707.25,193.83 C707.25,201.83 707.45,209.83 707.14,217.83 C706.509288,231.316698 695.338352,241.896998 681.8373,241.79488 C668.336248,241.692762 657.326633,230.944696 656.9,217.45 C656.66,208.29 656.85,199.13 656.85,189 Z" id="Shape"></path>
            <path d="M711.64,133.61 C711.64,123.73 710.91,114.61 711.81,105.55 C713.18,91.89 725.07,82.82 738.81,83.79 C751.851455,84.8399373 761.913828,95.7064312 761.96,108.79 C762.08,116.86 761.96,124.94 761.96,133.67 C745.5,114.39 724,118 711.64,133.61 Z" id="Shape"></path>
            <path d="M766,188.95 C784.4,206.67 795.19,206.72 815.93,189.86 C819.23,206.86 812.2,220.33 797.93,224.45 C782.69,228.84 766.75,217.52 766.06,201.74 C765.84,197.77 766,193.8 766,188.95 Z" id="Shape"></path>
            <path d="M252.86,175.41 C252.86,183.99 253.81,192.41 252.64,200.49 C250.88,212.69 238.73,220.77 224.64,219.7 C225.03,211.05 224.43,202.16 226.06,193.7 C228.44,181.54 240.35,174 252.86,175.41 Z" id="Shape"></path>
        </g>
    </g>
</svg>