<?xml version="1.0" encoding="UTF-8"?>
<svg width="77px" height="77px" viewBox="0 0 77 77" version="1.1" xmlns="http://www.w3.org/2000/svg" xmlns:xlink="http://www.w3.org/1999/xlink">
    <!-- Generator: Sketch 44.1 (41455) - http://www.bohemiancoding.com/sketch -->
    <title>guessing</title>
    <desc>Created with Sketch.</desc>
    <defs></defs>
    <g id="Page-1" stroke="none" stroke-width="1" fill="none" fill-rule="evenodd">
        <g id="guessing" fill-rule="nonzero" fill="#32BE73">
            <path d="M38.5,76.435401 C17.548856,76.435401 0.564599,59.451144 0.564599,38.5 C0.564599,17.548856 17.548856,0.564599 38.5,0.564599 C59.451144,0.564599 76.435401,17.548856 76.435401,38.5 C76.435401,59.451144 59.451144,76.435401 38.5,76.435401 Z M38.5,73.136671 C57.629305,73.136671 73.136671,57.629305 73.136671,38.5 C73.136671,19.370695 57.629305,3.863329 38.5,3.863329 C19.370695,3.863329 3.863329,19.370695 3.863329,38.5 C3.863329,57.629305 19.370695,73.136671 38.5,73.136671 Z M40.3878079,47.0236842 L36.3704166,47.0236842 C36.3247644,46.4868421 36.3247644,46.0394737 36.3247644,45.4578947 C36.3247644,42.5052632 37.4204166,40.2684211 40.1138948,38.4789474 L42.1225905,37.1368421 C43.6747644,36.1078947 44.5421557,34.4973684 44.5421557,32.7526316 C44.5421557,30.1131579 42.7617209,27.6526316 39.109547,27.6526316 C35.1378079,27.6526316 33.4030253,30.5605263 33.4030253,33.3789474 C33.4030253,34.1394737 33.5399818,35.0789474 33.7225905,35.5710526 L29.2943296,35.0342105 C29.1117209,34.4078947 29.0204166,33.6921053 29.0204166,32.8868421 C29.0204166,28.7710526 32.0791122,23.7157895 39.109547,23.7157895 C45.5008513,23.7157895 49.1073731,28.1447368 49.1073731,32.7078947 C49.1073731,36.2868421 47.0986774,38.7473684 44.4508513,40.4921053 L42.3508513,41.8789474 C40.935634,42.8184211 40.3421557,44.4289474 40.3421557,46.1736842 C40.3421557,46.3973684 40.3421557,46.5763158 40.3878079,47.0236842 Z M35.3660687,53.4210526 C35.3660687,51.8105263 36.6899818,50.4684211 38.33346,50.4684211 C39.9769383,50.4684211 41.3465035,51.8105263 41.3465035,53.4210526 C41.3465035,55.0315789 39.9769383,56.3289474 38.33346,56.3289474 C36.6899818,56.3289474 35.3660687,55.0315789 35.3660687,53.4210526 Z" id="time"></path>
        </g>
    </g>
</svg>