<?xml version="1.0" encoding="UTF-8"?>
<svg width="420px" height="125px" viewBox="0 0 420 125" version="1.1" xmlns="http://www.w3.org/2000/svg" xmlns:xlink="http://www.w3.org/1999/xlink">
    <!-- Generator: Sketch 44.1 (41455) - http://www.bohemiancoding.com/sketch -->
    <title>Group 2</title>
    <desc>Created with Sketch.</desc>
    <defs></defs>
    <g id="Page-1" stroke="none" stroke-width="1" fill="none" fill-rule="evenodd">
        <g id="Group-2" fill-rule="nonzero">
            <g id="Logos-sm" transform="translate(312.000000, 0.000000)" fill="#333333" opacity="0.149999991">
                <g id="Page-1">
                    <g id="iPhone-7">
                        <g id="Group-5">
                            <g id="Group-3">
                                <g id="Artboard-2-Copy-3">
                                    <path d="M45.1102249,7.91817747 C49.4427822,-3.34033595 85,-2.55925211 85,10.2614289 C85,23.9138677 75.9739455,34.981356 64.8397436,34.981356 C54.4795119,34.981356 45.9445278,25.399055 44.8080063,13.0681689 C44.0116921,12.8172921 43.2423567,12.6918536 42.5,12.6918536 C41.7576433,12.6918536 40.9883079,12.8172921 40.1919937,13.0681689 C39.0554722,25.399055 30.5204881,34.981356 20.1602564,34.981356 C9.02605427,34.981356 0,23.9138677 0,10.2614289 C0,-2.55925211 35.5572178,-3.34033595 39.8897751,7.91817747 C40.8583908,7.69420078 41.7284658,7.5822124 42.5,7.5822124 C43.2715342,7.5822124 44.1416092,7.69420078 45.1102249,7.91817747 Z M20.1602564,30.0732384 C28.1680778,30.0732384 34.6596997,22.1133983 34.6596997,12.2944378 C34.6596997,2.47547735 5.66081313,2.47547735 5.66081313,12.2944378 C5.66081313,22.1133983 12.152435,30.0732384 20.1602564,30.0732384 Z M64.8397436,30.0732384 C72.8475653,30.0732384 79.3391867,22.1133983 79.3391867,12.2944378 C79.3391867,2.47547735 50.3403003,2.47547735 50.3403003,12.2944378 C50.3403003,22.1133983 56.8319222,30.0732384 64.8397436,30.0732384 Z" id="Combined-Shape"></path>
                                </g>
                            </g>
                        </g>
                    </g>
                </g>
            </g>
            <g id="Logos" transform="translate(0.000000, 4.000000)" fill="#E1E1E1">
                <path d="M45.2517525,8.37508505 C42.7909551,8.37508505 40.926714,9.28036201 39.9200243,10.6759972 L39.9200243,8.90316325 L34.327302,8.90316325 L34.327302,27.7630993 L39.9200243,27.7630993 L39.9200243,17.4655743 C39.9200243,14.7874633 41.3368463,13.5804274 43.3875114,13.5804274 C45.1771834,13.5804274 46.6312911,14.6743037 46.6312911,17.0129357 L46.6312911,27.7630993 L52.2240134,27.7630993 L52.2240134,16.1830985 C52.2240134,11.0909158 49.0175194,8.37508505 45.2517525,8.37508505 Z M61.6819284,20.5963236 C62.3903394,22.557757 64.1054412,23.2367146 66.1561063,23.2367146 C67.684783,23.2367146 68.9897514,22.6331967 69.7354481,21.8033596 L74.2096259,24.4060307 C72.3826705,26.9709819 69.6235933,28.2911775 66.081536,28.2911775 C59.7058325,28.2911775 55.7536429,23.9533922 55.7536429,18.3331313 C55.7536429,12.7128704 59.7804027,8.37508505 65.6714037,8.37508505 C71.1149867,8.37508505 75.1417465,12.6374306 75.1417465,18.3331313 C75.1417465,19.1252486 75.0671774,19.879646 74.9180381,20.5963236 L61.6819284,20.5963236 Z M61.5700736,16.3716979 L69.5863087,16.3716979 C68.9897514,14.1839453 67.3119353,13.3918281 65.634118,13.3918281 C63.5088839,13.3918281 62.0920607,14.4479845 61.5700736,16.3716979 Z M98.6933215,8.90316325 L96.0088146,19.012089 L93.1005992,8.90316325 L87.8807258,8.90316325 L84.9725093,19.012089 L82.2880023,8.90316325 L76.3224323,8.90316325 L82.2880023,27.7630993 L87.5078769,27.7630993 L90.4906625,17.6918935 L93.4734481,27.7630993 L98.6933215,27.7630993 L104.658893,8.90316325 L98.6933215,8.90316325 Z M117.460012,27.7630993 L123.052734,27.7630993 L123.052734,0.227592732 L117.460012,0.227592732 L117.460012,27.7630993 Z M141.309866,8.90316325 L146.902588,8.90316325 L146.902588,27.7630993 L141.309866,27.7630993 L141.309866,25.9902653 C140.079468,27.4236205 138.252511,28.2911775 135.754429,28.2911775 C130.870118,28.2911775 126.843358,23.9533922 126.843358,18.3331313 C126.843358,12.7128704 130.870118,8.37508505 135.754429,8.37508505 C138.252511,8.37508505 140.079468,9.24264218 141.309866,10.6759972 L141.309866,8.90316325 Z M136.872974,22.9349556 C139.445626,22.9349556 141.309866,21.1621216 141.309866,18.3331313 C141.309866,15.5041409 139.445626,13.7313069 136.872974,13.7313069 C134.30032,13.7313069 132.43608,15.5041409 132.43608,18.3331313 C132.43608,21.1621216 134.30032,22.9349556 136.872974,22.9349556 Z M162.773492,8.37508505 C167.657803,8.37508505 171.684562,12.7128704 171.684562,18.3331313 C171.684562,23.9533922 167.657803,28.2911775 162.773492,28.2911775 C160.275409,28.2911775 158.448453,27.4236205 157.218055,25.9902653 L157.218055,27.7630993 L151.625332,27.7630993 L151.625332,1.35918889 L157.218055,1.35918889 L157.218055,10.6759972 C158.448453,9.24264218 160.275409,8.37508505 162.773492,8.37508505 Z M161.654948,22.9349556 C164.2276,22.9349556 166.09184,21.1621216 166.09184,18.3331313 C166.09184,15.5041409 164.2276,13.7313069 161.654948,13.7313069 C159.082295,13.7313069 157.218055,15.5041409 157.218055,18.3331313 C157.218055,21.1621216 159.082295,22.9349556 161.654948,22.9349556 Z M180.471351,20.5963236 C181.179763,22.557757 182.894864,23.2367146 184.945529,23.2367146 C186.474207,23.2367146 187.779175,22.6331967 188.524872,21.8033596 L192.99905,24.4060307 C191.172093,26.9709819 188.413017,28.2911775 184.87096,28.2911775 C178.495256,28.2911775 174.543065,23.9533922 174.543065,18.3331313 C174.543065,12.7128704 178.569825,8.37508505 184.460826,8.37508505 C189.904409,8.37508505 193.93117,12.6374306 193.93117,18.3331313 C193.93117,19.1252486 193.8566,19.879646 193.707461,20.5963236 L180.471351,20.5963236 Z M180.359496,16.3716979 L188.375732,16.3716979 C187.779175,14.1839453 186.101358,13.3918281 184.423542,13.3918281 C182.298308,13.3918281 180.881484,14.4479845 180.359496,16.3716979 Z M197.721793,27.7630993 L203.314515,27.7630993 L203.314515,0.227592732 L197.721793,0.227592732 L197.721793,27.7630993 Z" id="new-label-copy-3"></path>
                <g id="Group" transform="translate(0.000000, 89.000000)">
                    <path d="M8.82232695,25.4303894 C13.4557744,25.4303894 16.7479608,22.9623657 16.7479608,18.7975759 C16.7479608,14.2317321 13.1204592,13.0902712 9.88923921,12.1030617 C6.56656963,11.085002 6.0483551,10.4062954 6.0483551,9.41908602 C6.0483551,8.55527773 6.81043529,7.78402034 8.33459564,7.78402034 C10.2855209,7.78402034 11.2914667,8.74037951 12.0230637,10.2828943 L16.1382967,7.84572093 C14.5836532,4.66814049 11.8401645,2.97137423 8.33459564,2.97137423 C4.64612757,2.97137423 1.17104196,5.37769729 1.17104196,9.54248715 C1.17104196,13.6764268 4.28032908,15.2189416 7.45058264,16.1136002 C10.6513194,17.0082587 11.8706477,17.5327138 11.8706477,18.8592764 C11.8706477,19.6922344 11.2914667,20.6177433 8.97474299,20.6177433 C6.56656963,20.6177433 5.25579171,19.4145817 4.49371154,17.6252647 L0.287028944,20.0932883 C1.47587403,23.2708687 4.3412955,25.4303894 8.82232695,25.4303894 Z M31.9753943,9.57333751 L36.5478754,9.57333751 L36.5478754,24.9984853 L31.9753943,24.9984853 L31.9753943,23.5485214 C30.9694485,24.7208327 29.4757714,25.4303894 27.4333965,25.4303894 C23.4400963,25.4303894 20.1479099,21.8826055 20.1479099,17.2859113 C20.1479099,12.6892173 23.4400963,9.14143335 27.4333965,9.14143335 C29.4757714,9.14143335 30.9694485,9.85099012 31.9753943,11.0233014 L31.9753943,9.57333751 Z M28.3478927,21.0496474 C30.451234,21.0496474 31.9753943,19.5996836 31.9753943,17.2859113 C31.9753943,14.9721392 30.451234,13.5221753 28.3478927,13.5221753 C26.2445513,13.5221753 24.720391,14.9721392 24.720391,17.2859113 C24.720391,19.5996836 26.2445513,21.0496474 28.3478927,21.0496474 Z M41.3195688,24.9984853 L45.8920499,24.9984853 L45.8920499,2.47776951 L41.3195688,2.47776951 L41.3195688,24.9984853 Z M54.7484932,19.1369291 C55.3276741,20.7411445 56.7299017,21.2964498 58.406478,21.2964498 C59.6562895,21.2964498 60.7232018,20.8028451 61.3328659,20.1241385 L64.9908507,22.2528089 C63.4971736,24.3506291 61.2414163,25.4303894 58.3455116,25.4303894 C53.1328831,25.4303894 49.9016632,21.8826055 49.9016632,17.2859113 C49.9016632,12.6892173 53.1938495,9.14143335 58.0101963,9.14143335 C62.4607445,9.14143335 65.752931,12.6275167 65.752931,17.2859113 C65.752931,17.9337676 65.6919646,18.5507735 65.5700317,19.1369291 L54.7484932,19.1369291 Z M54.6570435,15.681696 L61.2109331,15.681696 C60.7232018,13.8923788 59.3514574,13.2445226 57.9797131,13.2445226 C56.2421703,13.2445226 55.0838084,14.1083309 54.6570435,15.681696 Z M73.4814955,14.0774807 C73.4814955,13.5221753 73.9692268,13.2136724 74.7617902,13.2136724 C75.767736,13.2136724 76.3774002,13.7689777 76.804165,14.5710854 L80.7060156,12.442415 C79.4257209,10.252044 77.2309299,9.14143335 74.7617902,9.14143335 C71.5915366,9.14143335 68.7870816,10.8381996 68.7870816,14.2008818 C68.7870816,19.537983 76.2859505,18.6433244 76.2859505,20.3400906 C76.2859505,20.9570966 75.7372528,21.2964498 74.6398574,21.2964498 C73.2985962,21.2964498 72.4450665,20.6485936 72.0487848,19.4762824 L68.0859678,21.7592042 C69.2748129,24.2580782 71.5915366,25.4303894 74.6398574,25.4303894 C77.9320438,25.4303894 80.9803645,23.9187249 80.9803645,20.3709409 C80.9803645,14.6636362 73.4814955,15.8359475 73.4814955,14.0774807 Z M98.9035649,25.4303894 C103.537012,25.4303894 106.829199,22.9623657 106.829199,18.7975759 C106.829199,14.2317321 103.201697,13.0902712 99.9704766,12.1030617 C96.6478075,11.085002 96.1295929,10.4062954 96.1295929,9.41908602 C96.1295929,8.55527773 96.8916735,7.78402034 98.4158338,7.78402034 C100.366759,7.78402034 101.372705,8.74037951 102.104302,10.2828943 L106.219534,7.84572093 C104.664891,4.66814049 101.921402,2.97137423 98.4158338,2.97137423 C94.7273655,2.97137423 91.2522799,5.37769729 91.2522799,9.54248715 C91.2522799,13.6764268 94.361567,15.2189416 97.5318201,16.1136002 C100.732557,17.0082587 101.951886,17.5327138 101.951886,18.8592764 C101.951886,19.6922344 101.372705,20.6177433 99.0559805,20.6177433 C96.6478075,20.6177433 95.3370296,19.4145817 94.5749494,17.6252647 L90.3682668,20.0932883 C91.5571119,23.2708687 94.4225334,25.4303894 98.9035649,25.4303894 Z M119.648459,9.14143335 C123.641759,9.14143335 126.933945,12.6892173 126.933945,17.2859113 C126.933945,21.8826055 123.641759,25.4303894 119.648459,25.4303894 C117.606084,25.4303894 116.112407,24.7208327 115.106461,23.5485214 L115.106461,31.1685444 L110.53398,31.1685444 L110.53398,9.57333751 L115.106461,9.57333751 L115.106461,11.0233014 C116.112407,9.85099012 117.606084,9.14143335 119.648459,9.14143335 Z M118.733962,21.0496474 C120.837304,21.0496474 122.361464,19.5996836 122.361464,17.2859113 C122.361464,14.9721392 120.837304,13.5221753 118.733962,13.5221753 C116.630621,13.5221753 115.106461,14.9721392 115.106461,17.2859113 C115.106461,19.5996836 116.630621,21.0496474 118.733962,21.0496474 Z M135.51604,12.3190138 L135.51604,9.57333751 L130.943559,9.57333751 L130.943559,24.9984853 L135.51604,24.9984853 L135.51604,18.0263185 C135.51604,14.9721392 138.198562,14.2008818 140.088521,14.5093848 L140.088521,9.26483453 C138.168079,9.26483453 136.125704,10.252044 135.51604,12.3190138 Z M150.499608,25.4303894 C146.018576,25.4303894 142.421557,21.8826055 142.421557,17.2859113 C142.421557,12.6892173 146.018576,9.14143335 150.499608,9.14143335 C154.980639,9.14143335 158.577658,12.6892173 158.577658,17.2859113 C158.577658,21.8826055 154.980639,25.4303894 150.499608,25.4303894 Z M150.499608,20.9262462 C152.481016,20.9262462 154.005177,19.4762824 154.005177,17.2859113 C154.005177,15.0955404 152.481016,13.6455765 150.499608,13.6455765 C148.518199,13.6455765 146.994038,15.0955404 146.994038,17.2859113 C146.994038,19.4762824 148.518199,20.9262462 150.499608,20.9262462 Z M172.433347,9.57333751 L172.433347,17.9954681 C172.433347,20.1858392 171.274984,21.1730487 169.598409,21.1730487 C168.135214,21.1730487 166.94637,20.27839 166.94637,18.3656717 L166.94637,9.57333751 L162.373889,9.57333751 L162.373889,19.0443783 C162.373889,23.2091681 164.995444,25.4303894 168.074248,25.4303894 C170.08614,25.4303894 171.6103,24.6899823 172.433347,23.5485214 L172.433347,24.9984853 L177.005828,24.9984853 L177.005828,9.57333751 L172.433347,9.57333751 Z M190.709101,14.01578 L190.709101,9.57333751 L187.569331,9.57333751 L187.569331,5.2542961 L182.996849,6.64255941 L182.996849,9.57333751 L180.558193,9.57333751 L180.558193,14.01578 L182.996849,14.01578 L182.996849,19.4762824 C182.996849,23.7953238 184.734392,25.6154912 190.709101,24.9984853 L190.709101,20.8028451 C188.69721,20.9262462 187.569331,20.8028451 187.569331,19.4762824 L187.569331,14.01578 L190.709101,14.01578 Z" id="Sales-Sprout"></path>
                    <g id="Sprout" transform="translate(198.818524, 0.296964)">
                        <g id="LeafR" transform="translate(17.402217, 0.000000)">
                            <path d="M2.9966261,18.6512254 C2.9966261,18.8741093 2.66424582,23.3535088 2.66424582,24.4426946 C1.6736095,24.4426946 2.1257811,25.382866 0.433958986,25.382866 C0.433958986,24.5977531 -1.33212291,10.5649798 5.01020447,5.07094504 C9.15844246,0.800459882 15.2212622,-1.2450925 17.3121774,0.796929243 C19.4030925,2.83895098 17.3469738,15.0580248 2.9966261,18.6512254 Z" id="Rectangle-6"></path>
                            <path d="M2.06483561,17.6575653 C2.06483561,17.8524129 1.25114181,22.938767 1.25114181,23.8909457 C0.385116223,23.8909457 1.72694031,23.8909457 0.247930102,23.8909457 C0.247930102,23.2045911 -0.0277378837,10.7317485 5.5167971,5.9288007 C9.14323411,2.19549382 15.0736515,0.610088865 16.2169269,1.67157112 C17.3602023,2.73305338 15.8612189,15.550619 2.06483561,17.6575653 Z" id="Rectangle-6"></path>
                        </g>
                        <g id="LeafL" transform="translate(10.954544, 14.297553) scale(-1, 1) translate(-10.954544, -14.297553) translate(0.954544, 1.797553)">
                            <path d="M4.32874902,18.6512254 C4.32874902,18.8741093 3.33746223,23.3535088 3.33746223,24.4426946 C2.34682591,24.4426946 1.69182211,24.4426946 0,24.4426946 C0,23.6575817 0,10.5649798 6.34232737,5.07094504 C10.4905653,0.800459882 16.5533852,-1.2450925 18.6443003,0.796929243 C20.7352155,2.83895098 18.6790967,15.0580248 4.32874902,18.6512254 Z" id="Rectangle-6"></path>
                            <path d="M3.39695851,17.6575653 C3.39695851,17.8524129 2.58326471,22.938767 2.58326471,23.8909457 C1.71723913,23.8909457 2.36709214,23.8909457 0.888081941,23.8909457 C0.888081941,23.2045911 1.30438503,10.7317485 6.84892002,5.9288007 C10.4753571,2.19549382 16.4057745,0.610088865 17.5490499,1.67157112 C18.6923253,2.73305338 17.1933418,15.550619 3.39695851,17.6575653 Z" id="Rectangle-6"></path>
                        </g>
                    </g>
                </g>
            </g>
            <path d="M307.361098,99.6248281 L311.776996,99.6248281 C311.755571,106.9424 311.755571,110.907639 311.776996,111.520546 C311.809135,112.439906 312.035451,112.977022 312.220236,113.304859 C312.40502,113.632695 312.825993,114.269212 313.277412,114.611821 C313.72883,114.95443 313.980478,115.016241 314.282401,115.096407 C314.483682,115.14985 314.823655,115.197702 315.302316,115.239961 C315.693582,115.238196 315.973731,115.223734 316.142762,115.196575 C316.39631,115.155838 317.092944,114.959953 317.737153,114.456794 C318.381361,113.953634 318.737066,113.355501 318.847062,113.084379 C318.95706,112.813257 319.014253,112.617572 319.064088,112.406407 C319.097311,112.26563 319.123643,112.061995 319.143087,111.795501 L319.178524,110.807414 L319.178524,99.6173598 L323.611622,99.6173598 L323.611622,118.679642 L319.363073,118.679642 L319.363073,117.433263 C318.764895,117.902328 318.305104,118.222237 317.983701,118.39299 C317.662298,118.563742 317.119701,118.776373 316.35591,119.030883 C315.704186,119.213691 315.108718,119.305095 314.569509,119.305095 C314.030299,119.305095 313.375934,119.213691 312.606414,119.030883 C312.102129,118.861282 311.618526,118.648651 311.15561,118.39299 C310.692692,118.137328 310.236414,117.847293 309.786776,117.522886 C309.323564,117.065145 309.002038,116.710092 308.822196,116.457727 C308.642354,116.205362 308.397966,115.766288 308.089031,115.140505 C307.863015,114.684697 307.689775,114.201839 307.569312,113.691931 C307.44885,113.182022 307.382917,112.627833 307.371515,112.029363 L307.361098,99.6248281 Z M345.623911,118.67904 L341.208013,118.67904 C341.229438,111.361468 341.229438,107.396228 341.208013,106.783322 C341.175874,105.863962 340.949558,105.326846 340.764774,104.999009 C340.57999,104.671173 340.159016,104.034656 339.707598,103.692047 C339.256179,103.349438 339.004531,103.287626 338.702608,103.207461 C338.501326,103.154018 338.161355,103.106166 337.682693,103.063906 C337.291427,103.065672 337.011277,103.080134 336.842247,103.107292 C336.588699,103.14803 335.892064,103.343915 335.247856,103.847074 C334.603648,104.350234 334.247943,104.948367 334.137947,105.219489 C334.027949,105.490611 333.970756,105.686296 333.920922,105.897461 C333.887699,106.038238 333.861365,106.241873 333.841923,106.508367 L333.806485,107.496453 L333.806485,118.686508 L329.373388,118.686508 L329.373388,99.6242255 L333.621936,99.6242255 L333.621936,100.870605 C334.220114,100.40154 334.679904,100.081631 335.001308,99.9108784 C335.322711,99.740126 335.865308,99.5274949 336.629099,99.2729848 C337.280823,99.0901767 337.876291,98.9987726 338.4155,98.9987726 C338.95471,98.9987726 339.609074,99.0901767 340.378595,99.2729848 C340.88288,99.4425855 341.366482,99.6552167 341.829399,99.9108784 C342.292317,100.16654 342.748594,100.456575 343.198234,100.780982 C343.661444,101.238723 343.982971,101.593776 344.162813,101.846141 C344.342655,102.098506 344.587043,102.53758 344.895979,103.163363 C345.121994,103.61917 345.295234,104.102029 345.415696,104.611937 C345.53616,105.121846 345.602092,105.676035 345.613495,106.274505 L345.623911,118.67904 Z M367.024748,118.67904 L362.608849,118.67904 C362.630274,111.361468 362.630274,107.396228 362.608849,106.783322 C362.57671,105.863962 362.350394,105.326846 362.165611,104.999009 C361.980827,104.671173 361.559852,104.034656 361.108434,103.692047 C360.657016,103.349438 360.405368,103.287626 360.103445,103.207461 C359.902163,103.154018 359.562192,103.106166 359.08353,103.063906 C358.692263,103.065672 358.412115,103.080134 358.243083,103.107292 C357.989536,103.14803 357.292901,103.343915 356.648693,103.847074 C356.004485,104.350234 355.648781,104.948367 355.538783,105.219489 C355.428787,105.490611 355.371592,105.686296 355.321758,105.897461 C355.288535,106.038238 355.262202,106.241873 355.242759,106.508367 L355.207322,107.496453 L355.207322,118.686508 L350.774224,118.686508 L350.774224,99.6242255 L355.022772,99.6242255 L355.022772,100.870605 C355.620951,100.40154 356.080742,100.081631 356.402145,99.9108784 C356.723548,99.740126 357.266144,99.5274949 358.029935,99.2729848 C358.681661,99.0901767 359.277127,98.9987726 359.816338,98.9987726 C360.355547,98.9987726 361.009912,99.0901767 361.779431,99.2729848 C362.283718,99.4425855 362.767319,99.6552167 363.230237,99.9108784 C363.693153,100.16654 364.149432,100.456575 364.599071,100.780982 C365.062282,101.238723 365.383808,101.593776 365.56365,101.846141 C365.743492,102.098506 365.987881,102.53758 366.296815,103.163363 C366.522831,103.61917 366.69607,104.102029 366.816534,104.611937 C366.936997,105.121846 367.00293,105.676035 367.014331,106.274505 L367.024748,118.67904 Z M388.73131,118.67904 L384.315413,118.67904 C384.336838,111.361468 384.336838,107.396228 384.315413,106.783322 C384.283274,105.863962 384.056957,105.326846 383.872173,104.999009 C383.68739,104.671173 383.266416,104.034656 382.814997,103.692047 C382.363579,103.349438 382.111931,103.287626 381.810008,103.207461 C381.608727,103.154018 381.268754,103.106166 380.790093,103.063906 C380.398827,103.065672 380.118678,103.080134 379.949646,103.107292 C379.6961,103.14803 378.999465,103.343915 378.355257,103.847074 C377.711047,104.350234 377.355344,104.948367 377.245346,105.219489 C377.13535,105.490611 377.078155,105.686296 377.028321,105.897461 C376.995098,106.038238 376.968766,106.241873 376.949322,106.508367 L376.913885,107.496453 L376.913885,118.686508 L372.480787,118.686508 L372.480787,99.6242255 L376.729336,99.6242255 L376.729336,100.870605 C377.327513,100.40154 377.787305,100.081631 378.108708,99.9108784 C378.430111,99.740126 378.972707,99.5274949 379.736498,99.2729848 C380.388223,99.0901767 380.98369,98.9987726 381.5229,98.9987726 C382.062111,98.9987726 382.716475,99.0901767 383.485995,99.2729848 C383.990281,99.4425855 384.473882,99.6552167 384.936799,99.9108784 C385.399716,100.16654 385.855995,100.456575 386.305634,100.780982 C386.768845,101.238723 387.090371,101.593776 387.270213,101.846141 C387.450055,102.098506 387.694443,102.53758 388.003378,103.163363 C388.229394,103.61917 388.402633,104.102029 388.523097,104.611937 C388.64356,105.121846 388.709492,105.676035 388.720894,106.274505 L388.73131,118.67904 Z M406.766096,112.155051 L410.658353,112.675792 C410.242608,113.999889 409.714277,115.290537 408.467278,116.621682 C407.825762,117.306486 406.762382,118.076303 405.566769,118.571652 C404.371157,119.067001 403.194279,119.252 402.003279,119.252 C399.73625,119.252 397.400841,118.43336 395.666521,116.844766 C394.864917,116.110517 394.07979,115.112811 393.520137,113.906511 C392.960486,112.700211 392.505588,110.824895 392.505588,109.075622 C392.505588,106.101892 393.641664,103.441067 395.471769,101.63613 C397.301874,99.8311934 399.424278,99.0575532 401.581971,99.0575532 C404.148555,99.0575532 406.152909,99.8422031 407.815868,101.500018 C409.478827,103.157832 410.408204,105.978771 410.543436,109.04484 C410.568292,109.629284 410.543436,110.432094 410.543436,110.591779 L397.091481,110.591779 C397.238038,111.985197 397.432483,112.579797 398.390697,113.708232 C399.348911,114.836667 400.879491,115.231183 402.003279,115.231183 C404.91257,115.231183 406.09472,114.192677 406.766096,112.155051 Z M397.230726,106.819005 L406.03616,106.819005 C405.957939,106.247268 405.855706,105.819301 405.729463,105.535104 C405.540096,105.108808 405.264896,104.646994 404.917588,104.300898 C404.570282,103.954802 404.02371,103.563399 403.49976,103.366599 C402.975812,103.1698 402.63968,103.081164 401.670228,103.081164 C400.700777,103.081164 400.351551,103.149093 399.688185,103.451118 C399.02482,103.753142 398.515515,104.264711 398.302702,104.529523 C398.089889,104.794335 397.81164,105.258888 397.622276,105.663323 C397.496034,105.932946 397.365518,106.318173 397.230726,106.819005 Z M295.40969,118.678749 L295.38591,103.740973 L292.078807,103.740973 L292.078807,99.6174767 L295.411372,99.6174767 L295.411372,96.5229927 C295.420147,96.0630417 295.448285,95.7014004 295.495786,95.4380688 C295.543287,95.1747372 295.614802,94.8885348 295.71033,94.5794616 C295.863152,94.1642637 295.987738,93.858732 296.084089,93.6628665 C296.18044,93.467001 296.348365,93.1936822 296.587864,92.8429101 C296.832409,92.5159698 297.034911,92.2725943 297.19537,92.1127835 C297.35583,91.9529727 297.615285,91.7362579 297.973735,91.4626392 C298.341919,91.2197616 298.641258,91.0451679 298.871751,90.9388581 C299.102243,90.8325482 299.472443,90.6983306 299.982354,90.536205 C300.374225,90.4459911 300.663028,90.3898843 300.848764,90.3678846 C301.127367,90.3348849 301.315092,90.2995378 301.711874,90.2995378 C302.108657,90.2995378 302.183912,90.3057748 302.439899,90.3293127 C302.610558,90.3450047 302.832925,90.3872383 303.107,90.4560135 C303.366926,90.5253177 303.569794,90.5884385 303.715602,90.6453759 C303.861409,90.7023134 304.054588,90.8001407 304.295137,90.9388581 L304.295137,95.0283402 L303.754953,94.8050728 C303.534185,94.723592 303.312777,94.6648232 303.09073,94.6287663 C302.868685,94.5927095 302.608187,94.5762746 302.30924,94.5794616 C301.970361,94.5921775 301.695486,94.6290501 301.484613,94.6900796 C301.168304,94.7816238 300.945822,94.911868 300.758282,95.0525057 C300.570741,95.1931434 300.289641,95.5713956 300.152277,95.8735749 C300.060702,96.0750277 299.987927,96.3987416 299.933954,96.8447165 L299.933954,99.6090113 L304.256096,99.6090113 L304.256096,103.769282 L299.930933,103.769282 L299.930933,118.678749 L295.40969,118.678749 Z M414.825021,90.4502786 L419.236675,90.4502786 L419.236675,118.68301 L414.816038,118.68301 L414.825021,90.4502786 Z" id="funnnel" fill="#E1E1E1"></path>
        </g>
    </g>
</svg>