<?xml version="1.0" encoding="UTF-8"?>
<svg width="932px" height="38px" viewBox="0 0 932 38" version="1.1" xmlns="http://www.w3.org/2000/svg" xmlns:xlink="http://www.w3.org/1999/xlink">
    <!-- Generator: Sketch 44.1 (41455) - http://www.bohemiancoding.com/sketch -->
    <title>Group 2</title>
    <desc>Created with Sketch.</desc>
    <defs></defs>
    <g id="Page-1" stroke="none" stroke-width="1" fill="none" fill-rule="evenodd">
        <g id="Group-2" fill="#E1E1E1">
            <g id="Logos" transform="translate(355.662469, 0.000000)">
                <g id="Page-1" fill-rule="nonzero">
                    <g id="Artboard-2-Copy-3">
                        <path d="M45.4751706,8.0595735 C49.8427786,-3.39998481 85.6876574,-2.60495304 85.6876574,10.4446687 C85.6876574,24.3409011 76.5885814,35.6060231 65.3643028,35.6060231 C54.9202559,35.6060231 46.316223,25.8526096 45.170507,13.3015291 C44.3677505,13.0461723 43.5921911,12.9184938 42.8438287,12.9184938 C42.0954663,12.9184938 41.3199069,13.0461723 40.5171504,13.3015291 C39.3714344,25.8526096 30.7674015,35.6060231 20.3233546,35.6060231 C9.09907584,35.6060231 0,24.3409011 0,10.4446687 C0,-2.60495304 35.8448788,-3.39998481 40.2124869,8.0595735 C41.1889388,7.83159722 42.0660527,7.71760905 42.8438287,7.71760905 C43.6216047,7.71760905 44.4987187,7.83159722 45.4751706,8.0595735 Z M20.3233546,30.6102605 C28.39596,30.6102605 34.9400997,22.5082804 34.9400997,12.5139813 C34.9400997,2.5196823 5.7066096,2.5196823 5.7066096,12.5139813 C5.7066096,22.5082804 12.2507493,30.6102605 20.3233546,30.6102605 Z M65.3643028,30.6102605 C73.4369085,30.6102605 79.9810477,22.5082804 79.9810477,12.5139813 C79.9810477,2.5196823 50.7475577,2.5196823 50.7475577,12.5139813 C50.7475577,22.5082804 57.2916974,30.6102605 65.3643028,30.6102605 Z" id="Combined-Shape"></path>
                    </g>
                </g>
                <path d="M213.177193,13.9977365 L217.275036,13.9977365 C217.255154,20.7882607 217.255154,24.4679038 217.275036,25.0366657 C217.30486,25.8898086 217.514876,26.3882391 217.686351,26.6924633 C217.857826,26.9966875 218.248479,27.5873596 218.667384,27.9052921 C219.086289,28.2232245 219.319812,28.280584 219.599989,28.3549753 C219.786773,28.4045695 220.102259,28.4489746 220.546445,28.4881905 C220.90953,28.486552 221.169501,28.4731316 221.326358,28.4479294 C221.561644,28.410126 222.208103,28.2283498 222.805913,27.7614303 C223.403722,27.2945108 223.733807,26.7394583 223.835881,26.4878638 C223.937956,26.2362694 223.99103,26.0546787 224.037275,25.8587228 C224.068105,25.7280855 224.092541,25.5391171 224.110584,25.2918174 L224.143469,24.3748975 L224.143469,13.9908061 L228.257273,13.9908061 L228.257273,31.6801286 L224.314726,31.6801286 L224.314726,30.5235197 C223.759632,30.9588006 223.332957,31.2556681 223.034703,31.4141219 C222.736449,31.5725758 222.232933,31.7698922 221.524154,32.0060712 C220.91937,32.1757126 220.366791,32.2605333 219.866418,32.2605333 C219.366045,32.2605333 218.75881,32.1757126 218.044715,32.0060712 C217.576751,31.848686 217.12798,31.6513696 216.698405,31.4141219 C216.268829,31.1768742 215.845414,30.9077294 215.428161,30.6066873 C214.998312,30.1819156 214.699944,29.8524353 214.533055,29.6182465 C214.366166,29.3840577 214.13938,28.9766081 213.852696,28.3958976 C213.642959,27.9729194 213.482197,27.524839 213.37041,27.0516566 C213.258624,26.5784741 213.19744,26.0642002 213.186859,25.5088349 L213.177193,13.9977365 Z M248.684128,31.6795694 L244.586285,31.6795694 C244.606167,24.8890452 244.606167,21.2094021 244.586285,20.6406402 C244.556461,19.7874973 244.346445,19.2890668 244.17497,18.9848426 C244.003495,18.6806184 243.612842,18.0899463 243.193937,17.7720138 C242.775032,17.4540814 242.541509,17.3967219 242.261332,17.3223306 C242.074547,17.2727364 241.759062,17.2283313 241.314876,17.1891154 C240.951791,17.1907539 240.691819,17.2041743 240.534963,17.2293765 C240.299677,17.2671799 239.653217,17.4489561 239.055408,17.9158756 C238.457599,18.3827951 238.127514,18.9378476 238.02544,19.1894421 C237.923365,19.4410365 237.870291,19.6226272 237.824046,19.8185831 C237.793216,19.9492204 237.768779,20.1381888 237.750737,20.3854884 L237.717852,21.3024084 L237.717852,31.6864998 L233.604048,31.6864998 L233.604048,13.9971773 L237.546595,13.9971773 L237.546595,15.1537862 C238.101689,14.7185053 238.528363,14.4216378 238.826618,14.263184 C239.124872,14.1047301 239.628388,13.9074137 240.337167,13.6712347 C240.941951,13.5015933 241.49453,13.4167726 241.994903,13.4167726 C242.495276,13.4167726 243.10251,13.5015933 243.816606,13.6712347 C244.28457,13.8286199 244.73334,14.0259363 245.162916,14.263184 C245.592492,14.5004316 246.015906,14.7695765 246.43316,15.0706186 C246.863008,15.4953903 247.161377,15.8248706 247.328266,16.0590594 C247.495155,16.2932482 247.721941,16.7006978 248.008625,17.2814083 C248.218362,17.7043865 248.379124,18.1524668 248.49091,18.6256493 C248.602697,19.0988318 248.663881,19.6131057 248.674462,20.168471 L248.684128,31.6795694 Z M268.543571,31.6795694 L264.445727,31.6795694 C264.465609,24.8890452 264.465609,21.2094021 264.445727,20.6406402 C264.415903,19.7874973 264.205887,19.2890668 264.034413,18.9848426 C263.862938,18.6806184 263.472284,18.0899463 263.053379,17.7720138 C262.634474,17.4540814 262.400951,17.3967219 262.120774,17.3223306 C261.93399,17.2727364 261.618505,17.2283313 261.174319,17.1891154 C260.811233,17.1907539 260.551262,17.2041743 260.394405,17.2293765 C260.15912,17.2671799 259.51266,17.4489561 258.914851,17.9158756 C258.317042,18.3827951 257.986957,18.9378476 257.884882,19.1894421 C257.782808,19.4410365 257.729733,19.6226272 257.683488,19.8185831 C257.652658,19.9492204 257.628222,20.1381888 257.610179,20.3854884 L257.577294,21.3024084 L257.577294,31.6864998 L253.46349,31.6864998 L253.46349,13.9971773 L257.406037,13.9971773 L257.406037,15.1537862 C257.961132,14.7185053 258.387806,14.4216378 258.68606,14.263184 C258.984314,14.1047301 259.48783,13.9074137 260.196609,13.6712347 C260.801394,13.5015933 261.353972,13.4167726 261.854346,13.4167726 C262.354719,13.4167726 262.961953,13.5015933 263.676048,13.6712347 C264.144013,13.8286199 264.592783,14.0259363 265.022359,14.263184 C265.451934,14.5004316 265.875349,14.7695765 266.292603,15.0706186 C266.722451,15.4953903 267.020819,15.8248706 267.187708,16.0590594 C267.354597,16.2932482 267.581384,16.7006978 267.868067,17.2814083 C268.077804,17.7043865 268.238566,18.1524668 268.350353,18.6256493 C268.46214,19.0988318 268.523324,19.6131057 268.533904,20.168471 L268.543571,31.6795694 Z M288.686719,31.6795694 L284.588876,31.6795694 C284.608758,24.8890452 284.608758,21.2094021 284.588876,20.6406402 C284.559052,19.7874973 284.349036,19.2890668 284.177561,18.9848426 C284.006087,18.6806184 283.615433,18.0899463 283.196528,17.7720138 C282.777623,17.4540814 282.5441,17.3967219 282.263923,17.3223306 C282.077139,17.2727364 281.761653,17.2283313 281.317467,17.1891154 C280.954382,17.1907539 280.694411,17.2041743 280.537554,17.2293765 C280.302269,17.2671799 279.655809,17.4489561 279.058,17.9158756 C278.46019,18.3827951 278.130106,18.9378476 278.028031,19.1894421 C277.925957,19.4410365 277.872882,19.6226272 277.826637,19.8185831 C277.795807,19.9492204 277.771371,20.1381888 277.753328,20.3854884 L277.720443,21.3024084 L277.720443,31.6864998 L273.606639,31.6864998 L273.606639,13.9971773 L277.549186,13.9971773 L277.549186,15.1537862 C278.10428,14.7185053 278.530955,14.4216378 278.829209,14.263184 C279.127463,14.1047301 279.630979,13.9074137 280.339758,13.6712347 C280.944542,13.5015933 281.497121,13.4167726 281.997494,13.4167726 C282.497868,13.4167726 283.105102,13.5015933 283.819197,13.6712347 C284.287162,13.8286199 284.735932,14.0259363 285.165507,14.263184 C285.595083,14.5004316 286.018498,14.7695765 286.435752,15.0706186 C286.8656,15.4953903 287.163968,15.8248706 287.330857,16.0590594 C287.497746,16.2932482 287.724532,16.7006978 288.011216,17.2814083 C288.220953,17.7043865 288.381715,18.1524668 288.493502,18.6256493 C288.605289,19.0988318 288.666472,19.6131057 288.677053,20.168471 L288.686719,31.6795694 Z M305.42255,25.6254704 L309.034467,26.1087052 C308.648666,27.3374343 308.158388,28.5351233 307.001204,29.7703929 C306.405894,30.4058741 305.419103,31.1202446 304.309604,31.5799163 C303.200106,32.039588 302.107993,32.2112619 301.002775,32.2112619 C298.899028,32.2112619 296.731827,31.4515851 295.122421,29.9774087 C294.378553,29.2960447 293.649975,28.3701982 293.130631,27.250782 C292.611288,26.1313657 292.189154,24.3911194 292.189154,22.7678371 C292.189154,20.0082902 293.243405,17.5391106 294.941696,15.8641744 C296.639988,14.1892383 298.609526,13.4713195 300.611811,13.4713195 C302.993537,13.4713195 304.853528,14.1994551 306.396712,15.7378657 C307.939897,17.2762763 308.802335,19.8940368 308.927827,22.7392722 C308.950893,23.2816219 308.927827,24.0266095 308.927827,24.1747933 L296.444749,24.1747933 C296.58075,25.4678504 296.76119,26.0196242 297.650389,27.066784 C298.539587,28.1139438 299.959927,28.4800444 301.002775,28.4800444 C303.702524,28.4800444 304.79953,27.5163367 305.42255,25.6254704 Z M296.573965,20.6737533 L304.745188,20.6737533 C304.6726,20.1431957 304.577731,19.746053 304.46058,19.4823252 C304.284853,19.0867334 304.029474,18.6581809 303.707181,18.3370127 C303.384889,18.0158446 302.877684,17.6526316 302.391472,17.4700069 C301.905261,17.2873822 301.593339,17.2051301 300.693712,17.2051301 C299.794085,17.2051301 299.470012,17.268166 298.854425,17.5484376 C298.238839,17.8287092 297.766217,18.3034317 297.568732,18.549171 C297.371246,18.7949103 297.113038,19.2260038 296.937313,19.6013088 C296.820164,19.8515121 296.699048,20.2089936 296.573965,20.6737533 Z M202.086584,31.6792995 L202.064517,17.8174165 L198.995608,17.8174165 L198.995608,13.9909146 L202.088145,13.9909146 L202.088145,11.1193106 C202.096288,10.6924876 202.122399,10.3568935 202.166479,10.1125283 C202.210559,9.86816316 202.276923,9.60257448 202.365571,9.31576229 C202.507386,8.93046899 202.622998,8.6469432 202.71241,8.4651849 C202.801821,8.2834266 202.957651,8.02979359 203.1799,7.70428586 C203.406832,7.40089343 203.594749,7.17504699 203.743651,7.02674654 C203.892554,6.8784461 204.133321,6.67734022 204.465954,6.42342891 C204.80762,6.19804454 205.085399,6.03602592 205.29929,5.93737305 C205.513181,5.83872019 205.856718,5.71416953 206.329902,5.5637211 C206.693549,5.48000484 206.961551,5.42793911 207.133909,5.40752389 C207.392446,5.37690106 207.56665,5.34409984 207.934854,5.34409984 C208.303058,5.34409984 208.372893,5.34988757 208.610443,5.37173021 C208.76881,5.38629198 208.975161,5.42548371 209.229496,5.4893054 C209.470701,5.55361794 209.658957,5.61219247 209.794263,5.66502898 C209.929569,5.71786548 210.108834,5.80864684 210.332057,5.93737305 L210.332057,9.73231039 L209.83078,9.52512384 C209.625913,9.44951171 209.420452,9.39497571 209.214398,9.36151585 C209.008345,9.328056 208.76661,9.31280481 208.489194,9.31576229 C208.174723,9.32756229 207.919646,9.3617792 207.723961,9.41841303 C207.430434,9.50336378 207.223977,9.62422712 207.049944,9.75473541 C206.875911,9.88524371 206.615057,10.2362523 206.487587,10.5166671 C206.402607,10.7036103 206.335074,11.0040087 206.284988,11.4178623 L206.284988,13.9830589 L210.295828,13.9830589 L210.295828,17.8436866 L206.282185,17.8436866 L206.282185,31.6792995 L202.086584,31.6792995 Z M312.901031,5.48398347 L316.994936,5.48398347 L316.994936,31.6832538 L312.892695,31.6832538 L312.901031,5.48398347 Z" id="funnnel"></path>
            </g>
            <path d="M793.902726,14.8460545 C791.752761,14.8460545 790.123999,15.6369826 789.244468,16.85633 L789.244468,15.3074292 L784.358183,15.3074292 L784.358183,31.7850974 L789.244468,31.7850974 L789.244468,22.7882906 C789.244468,20.4484617 790.482326,19.3938909 792.273964,19.3938909 C793.837576,19.3938909 795.10801,20.3495957 795.10801,22.3928265 L795.10801,31.7850974 L799.994295,31.7850974 L799.994295,21.6678091 C799.994295,17.2188387 797.192825,14.8460545 793.902726,14.8460545 Z M808.257546,25.5235835 C808.876475,27.237261 810.374936,27.830457 812.166574,27.830457 C813.502158,27.830457 814.642291,27.3031717 815.293796,26.5781543 L819.202824,28.8520725 C817.606638,31.0930353 815.19607,32.2464721 812.101423,32.2464721 C806.531058,32.2464721 803.078084,28.4566084 803.078084,23.5462633 C803.078084,18.6359182 806.596209,14.8460545 811.743096,14.8460545 C816.49908,14.8460545 820.017205,18.5700075 820.017205,23.5462633 C820.017205,24.2383254 819.952055,24.8974321 819.821754,25.5235835 L808.257546,25.5235835 Z M808.15982,21.8325858 L815.163495,21.8325858 C814.642291,19.9211763 813.176406,19.2291143 811.71052,19.2291143 C809.853732,19.2291143 808.615873,20.1518637 808.15982,21.8325858 Z M840.593894,15.3074292 L838.248477,24.1394594 L835.707609,15.3074292 L831.147077,15.3074292 L828.606208,24.1394594 L826.260791,15.3074292 L821.048754,15.3074292 L826.260791,31.7850974 L830.821324,31.7850974 L833.427343,22.9860226 L836.033362,31.7850974 L840.593894,31.7850974 L845.805932,15.3074292 L840.593894,15.3074292 Z M856.990095,31.7850974 L861.87638,31.7850974 L861.87638,7.72770188 L856.990095,7.72770188 L856.990095,31.7850974 Z M877.827386,15.3074292 L882.713671,15.3074292 L882.713671,31.7850974 L877.827386,31.7850974 L877.827386,30.2361966 C876.752404,31.4884994 875.156217,32.2464721 872.973677,32.2464721 C868.706321,32.2464721 865.188196,28.4566084 865.188196,23.5462633 C865.188196,18.6359182 868.706321,14.8460545 872.973677,14.8460545 C875.156217,14.8460545 876.752404,15.6040273 877.827386,16.85633 L877.827386,15.3074292 Z M873.950934,27.5668143 C876.198625,27.5668143 877.827386,26.0179135 877.827386,23.5462633 C877.827386,21.0746131 876.198625,19.5257123 873.950934,19.5257123 C871.703242,19.5257123 870.074481,21.0746131 870.074481,23.5462633 C870.074481,26.0179135 871.703242,27.5668143 873.950934,27.5668143 Z M896.579863,14.8460545 C900.847218,14.8460545 904.365343,18.6359182 904.365343,23.5462633 C904.365343,28.4566084 900.847218,32.2464721 896.579863,32.2464721 C894.397322,32.2464721 892.801135,31.4884994 891.726153,30.2361966 L891.726153,31.7850974 L886.839868,31.7850974 L886.839868,8.71636197 L891.726153,8.71636197 L891.726153,16.85633 C892.801135,15.6040273 894.397322,14.8460545 896.579863,14.8460545 Z M895.602606,27.5668143 C897.850297,27.5668143 899.479058,26.0179135 899.479058,23.5462633 C899.479058,21.0746131 897.850297,19.5257123 895.602606,19.5257123 C893.354914,19.5257123 891.726153,21.0746131 891.726153,23.5462633 C891.726153,26.0179135 893.354914,27.5668143 895.602606,27.5668143 Z M912.04224,25.5235835 C912.66117,27.237261 914.15963,27.830457 915.951268,27.830457 C917.286853,27.830457 918.426986,27.3031717 919.078491,26.5781543 L922.987519,28.8520725 C921.391332,31.0930353 918.980765,32.2464721 915.886118,32.2464721 C910.315753,32.2464721 906.862778,28.4566084 906.862778,23.5462633 C906.862778,18.6359182 910.380903,14.8460545 915.52779,14.8460545 C920.283774,14.8460545 923.8019,18.5700075 923.8019,23.5462633 C923.8019,24.2383254 923.736749,24.8974321 923.606448,25.5235835 L912.04224,25.5235835 Z M911.944514,21.8325858 L918.94819,21.8325858 C918.426986,19.9211763 916.9611,19.2291143 915.495215,19.2291143 C913.638427,19.2291143 912.400568,20.1518637 911.944514,21.8325858 Z M927.113715,31.7850974 L932,31.7850974 L932,7.72770188 L927.113715,7.72770188 L927.113715,31.7850974 Z" id="new-label-copy-3"></path>
            <g id="Group" transform="translate(0.000000, 4.750000)">
                <path d="M9.16832196,27.0197887 C13.9834845,27.0197887 17.4047842,24.3975136 17.4047842,19.9724244 C17.4047842,15.1212154 13.6350188,13.9084131 10.2770765,12.8595031 C6.82409809,11.7778146 6.28556017,11.0566889 6.28556017,10.0077789 C6.28556017,9.08998259 7.0775277,8.27052161 8.66146275,8.27052161 C10.6888996,8.27052161 11.7342967,9.28665323 12.4945856,10.9255752 L16.7712102,8.33607849 C15.1555965,4.95989927 12.3045134,3.15708512 8.66146275,3.15708512 C4.82833992,3.15708512 1.21696801,5.71380337 1.21696801,10.1388926 C1.21696801,14.5312035 4.44819551,16.1701254 7.74278042,17.1207002 C11.069044,18.0712749 12.3361921,18.6285084 12.3361921,20.0379812 C12.3361921,20.9229991 11.7342967,21.9063523 9.32671547,21.9063523 C6.82409809,21.9063523 5.46191394,20.6279931 4.66994642,18.7268437 L0.298285677,21.3491188 C1.53375502,24.725298 4.51155291,27.0197887 9.16832196,27.0197887 Z M33.2294089,10.1716711 L37.9812141,10.1716711 L37.9812141,26.5608906 L33.2294089,26.5608906 L33.2294089,25.020304 C32.1840118,26.2658847 30.6317555,27.0197887 28.5092825,27.0197887 C24.3593726,27.0197887 20.9380729,23.2502683 20.9380729,18.3662808 C20.9380729,13.4822934 24.3593726,9.71277293 28.5092825,9.71277293 C30.6317555,9.71277293 32.1840118,10.466677 33.2294089,11.7122577 L33.2294089,10.1716711 Z M29.4596435,22.3652504 C31.6454739,22.3652504 33.2294089,20.8246638 33.2294089,18.3662808 C33.2294089,15.9078979 31.6454739,14.3673113 29.4596435,14.3673113 C27.2738131,14.3673113 25.6898781,15.9078979 25.6898781,18.3662808 C25.6898781,20.8246638 27.2738131,22.3652504 29.4596435,22.3652504 Z M42.9400443,26.5608906 L47.6918495,26.5608906 L47.6918495,2.6326301 L42.9400443,2.6326301 L42.9400443,26.5608906 Z M56.8956257,20.3329872 C57.497521,22.037466 58.9547413,22.6274779 60.6970698,22.6274779 C61.9958966,22.6274779 63.1046511,22.1030229 63.7382251,21.3818972 L67.5396692,23.6436095 C65.9874129,25.8725434 63.643189,27.0197887 60.6337124,27.0197887 C55.2166545,27.0197887 51.8587122,23.2502683 51.8587122,18.3662808 C51.8587122,13.4822934 55.2800119,9.71277293 60.2852467,9.71277293 C64.910337,9.71277293 68.3316368,13.4167365 68.3316368,18.3662808 C68.3316368,19.0546281 68.2682794,19.7101968 68.1415646,20.3329872 L56.8956257,20.3329872 Z M56.8005896,16.661802 L63.6115103,16.661802 C63.1046511,14.7606525 61.6791095,14.0723053 60.253568,14.0723053 C58.447882,14.0723053 57.2440914,14.9901016 56.8005896,16.661802 Z M76.363301,14.9573232 C76.363301,14.3673113 76.8701602,14.0395269 77.6938065,14.0395269 C78.7392036,14.0395269 79.3727776,14.6295388 79.8162794,15.4817782 L83.8711532,13.2200659 C82.5406477,10.8927967 80.2597812,9.71277293 77.6938065,9.71277293 C74.3992215,9.71277293 71.4847811,11.5155871 71.4847811,15.0884369 C71.4847811,20.7591069 79.2777415,19.8085322 79.2777415,21.6113463 C79.2777415,22.2669151 78.7075249,22.6274779 77.5670917,22.6274779 C76.1732288,22.6274779 75.2862252,21.9391307 74.8744021,20.69355 L70.7561709,23.1191545 C71.9916403,25.7742081 74.3992215,27.0197887 77.5670917,27.0197887 C80.9883914,27.0197887 84.1562615,25.4136452 84.1562615,21.6441247 C84.1562615,15.5801135 76.363301,16.8256942 76.363301,14.9573232 Z M102.782376,27.0197887 C107.597538,27.0197887 111.018838,24.3975136 111.018838,19.9724244 C111.018838,15.1212154 107.249073,13.9084131 103.89113,12.8595031 C100.438152,11.7778146 99.8996141,11.0566889 99.8996141,10.0077789 C99.8996141,9.08998259 100.691582,8.27052161 102.275517,8.27052161 C104.302954,8.27052161 105.348351,9.28665323 106.10864,10.9255752 L110.385264,8.33607849 C108.76965,4.95989927 105.918567,3.15708512 102.275517,3.15708512 C98.4423939,3.15708512 94.831022,5.71380337 94.831022,10.1388926 C94.831022,14.5312035 98.0622495,16.1701254 101.356834,17.1207002 C104.683098,18.0712749 105.950246,18.6285084 105.950246,20.0379812 C105.950246,20.9229991 105.348351,21.9063523 102.940769,21.9063523 C100.438152,21.9063523 99.0759679,20.6279931 98.2840004,18.7268437 L93.9123396,21.3491188 C95.147809,24.725298 98.1256069,27.0197887 102.782376,27.0197887 Z M124.340846,9.71277293 C128.490755,9.71277293 131.912055,13.4822934 131.912055,18.3662808 C131.912055,23.2502683 128.490755,27.0197887 124.340846,27.0197887 C122.218373,27.0197887 120.666116,26.2658847 119.620719,25.020304 L119.620719,33.1165784 L114.868914,33.1165784 L114.868914,10.1716711 L119.620719,10.1716711 L119.620719,11.7122577 C120.666116,10.466677 122.218373,9.71277293 124.340846,9.71277293 Z M123.390484,22.3652504 C125.576315,22.3652504 127.16025,20.8246638 127.16025,18.3662808 C127.16025,15.9078979 125.576315,14.3673113 123.390484,14.3673113 C121.204654,14.3673113 119.620719,15.9078979 119.620719,18.3662808 C119.620719,20.8246638 121.204654,22.3652504 123.390484,22.3652504 Z M140.830723,13.0889522 L140.830723,10.1716711 L136.078918,10.1716711 L136.078918,26.5608906 L140.830723,26.5608906 L140.830723,19.1529634 C140.830723,15.9078979 143.618449,15.0884369 145.582528,15.4162213 L145.582528,9.84388669 C143.58677,9.84388669 141.464297,10.8927967 140.830723,13.0889522 Z M156.401918,27.0197887 C151.745149,27.0197887 148.007062,23.2502683 148.007062,18.3662808 C148.007062,13.4822934 151.745149,9.71277293 156.401918,9.71277293 C161.058687,9.71277293 164.796774,13.4822934 164.796774,18.3662808 C164.796774,23.2502683 161.058687,27.0197887 156.401918,27.0197887 Z M156.401918,22.2341366 C158.461034,22.2341366 160.044969,20.69355 160.044969,18.3662808 C160.044969,16.0390117 158.461034,14.498425 156.401918,14.498425 C154.342802,14.498425 152.758867,16.0390117 152.758867,18.3662808 C152.758867,20.69355 154.342802,22.2341366 156.401918,22.2341366 Z M179.195857,10.1716711 L179.195857,19.1201849 C179.195857,21.4474541 177.992066,22.4963642 176.249738,22.4963642 C174.72916,22.4963642 173.493691,21.5457894 173.493691,19.5135262 L173.493691,10.1716711 L168.741886,10.1716711 L168.741886,20.2346519 C168.741886,24.6597411 171.466254,27.0197887 174.665803,27.0197887 C176.756597,27.0197887 178.340532,26.2331062 179.195857,25.020304 L179.195857,26.5608906 L183.947662,26.5608906 L183.947662,10.1716711 L179.195857,10.1716711 Z M198.188352,14.8917663 L198.188352,10.1716711 L194.925446,10.1716711 L194.925446,5.58268961 L190.17364,7.05771937 L190.17364,10.1716711 L187.639344,10.1716711 L187.639344,14.8917663 L190.17364,14.8917663 L190.17364,20.69355 C190.17364,25.2825315 191.979326,27.2164594 198.188352,26.5608906 L198.188352,22.1030229 C196.097558,22.2341366 194.925446,22.1030229 194.925446,20.69355 L194.925446,14.8917663 L198.188352,14.8917663 Z" id="Sales-Sprout"></path>
                <g id="Sprout" transform="translate(206.615811, 0.315524)">
                    <g id="LeafR" transform="translate(18.084699, 0.000000)">
                        <path d="M3.11414812,19.816927 C3.11414812,20.0537411 2.76873251,24.8131031 2.76873251,25.970363 C1.7392453,25.970363 2.20915022,26.9692951 0.450978038,26.9692951 C0.450978038,26.1351127 -1.38436626,11.225291 5.20669523,5.38787911 C9.51761928,0.850488625 15.8182114,-1.32291078 17.9911283,0.846737321 C20.1640452,3.01638542 18.0272894,15.9991514 3.11414812,19.816927 Z" id="Rectangle-6"></path>
                        <path d="M2.14581456,18.7611631 C2.14581456,18.9681887 1.30020923,24.3724399 1.30020923,25.3841298 C0.400219754,25.3841298 1.79466765,25.3841298 0.257653453,25.3841298 C0.257653453,24.654878 -0.0288257111,11.4024828 5.73315547,6.29935074 C9.50181449,2.33271218 15.6648117,0.648219419 16.8529242,1.77604432 C18.0410367,2.90386922 16.483266,16.5225327 2.14581456,18.7611631 Z" id="Rectangle-6"></path>
                    </g>
                    <g id="LeafL" transform="translate(11.276342, 14.909900) scale(-1, 1) translate(-11.276342, -14.909900) translate(0.776342, 1.909900)">
                        <path d="M4.49851438,19.816927 C4.49851438,20.0537411 3.4683512,24.8131031 3.4683512,25.970363 C2.43886399,25.970363 1.75817218,25.970363 0,25.970363 C0,25.1361806 0,11.225291 6.59106148,5.38787911 C10.9019855,0.850488625 17.2025777,-1.32291078 19.3754946,0.846737321 C21.5484115,3.01638542 19.4116556,15.9991514 4.49851438,19.816927 Z" id="Rectangle-6"></path>
                        <path d="M3.53018081,18.7611631 C3.53018081,18.9681887 2.68457548,24.3724399 2.68457548,25.3841298 C1.78458601,25.3841298 2.45992503,25.3841298 0.922910838,25.3841298 C0.922910838,24.654878 1.35554055,11.4024828 7.11752173,6.29935074 C10.8861808,2.33271218 17.049178,0.648219419 18.2372905,1.77604432 C19.425403,2.90386922 17.8676322,16.5225327 3.53018081,18.7611631 Z" id="Rectangle-6"></path>
                    </g>
                </g>
            </g>
        </g>
    </g>
</svg>