<?xml version="1.0" encoding="UTF-8"?>
<svg width="71px" height="71px" viewBox="0 0 71 71" version="1.1" xmlns="http://www.w3.org/2000/svg" xmlns:xlink="http://www.w3.org/1999/xlink">
    <!-- Generator: Sketch 44.1 (41455) - http://www.bohemiancoding.com/sketch -->
    <title>money</title>
    <desc>Created with Sketch.</desc>
    <defs></defs>
    <g id="Page-1" stroke="none" stroke-width="1" fill="none" fill-rule="evenodd">
        <g id="money" fill="#32BE73">
            <path d="M66.9104552,40.5482327 C69.6253632,45.9359668 71,51.5598749 71,57.2575885 C71,64.8299374 63.8175226,71 55.002662,71 L15.997338,71 C7.18247741,71 0,64.8299374 0,57.2575885 C0,51.5598749 1.37463683,45.9359668 4.08954481,40.5482327 C6.25459763,36.2675679 9.26161657,32.1197507 13.0246847,28.2376295 C17.5094386,23.6174634 21.9770081,20.4881496 24.3138914,18.9972972 L14.863262,6.7309775 C14.3305902,6.03721408 14.4336883,5.10727663 15.1038239,4.5168397 C18.317038,1.68274391 21.5989834,0.354261974 25.4479674,0.354261974 C28.489351,0.354261974 31.6338337,1.15135095 35.7233785,2.4355513 C36.0326718,2.53887779 36.341965,2.5831603 36.7028074,2.5831603 C37.8884313,2.5831603 39.348984,2.05176734 40.8954503,1.50561292 C42.854308,0.797088974 45.1052755,0 47.5624393,0 C50.2429816,0 52.6485963,0.929937447 54.9167473,2.83409579 C55.5868828,3.38024928 55.7243466,4.23638222 55.2947729,4.93014564 L46.5314614,18.8939707 C48.8511614,20.3553011 53.4046466,23.5141369 57.9753153,28.2376295 C61.7555668,32.1197507 64.7454024,36.2675679 66.9104552,40.5482327 Z M17.751403,5.97680242 L27.2426149,17.6540538 L43.4473506,17.6540538 L52.2100226,4.24841486 C50.80102,3.39228191 48.4247286,2.84722425 47.6343115,2.84722425 C46.0019305,2.84722425 43.9818862,3.61369541 42.2120403,4.24841486 C40.3734641,4.91265629 38.9800351,5.57852699 36.9696284,5.57852699 C36.1448467,5.57852699 35.0756622,5.51604979 34.3196118,5.27987483 C30.6596407,4.11376242 28.0778585,3.13922296 25.6378771,3.13922296 C23.3525438,3.13922296 19.7446263,4.50071055 17.751403,5.97680242 Z M54.8651982,68.0307781 C61.4119079,68.0307781 67.7068287,62.8814966 67.672462,57.2575885 C67.672462,47.7810811 63.4883816,38.5415503 55.5326705,30.3049599 C50.5152448,25.0943577 44.5754496,21.147421 43.0117999,20.2174836 L27.5293021,20.2174836 C25.9828358,21.1621815 20.4753521,25.0943577 15.4579275,30.3049599 C7.5193987,38.5415503 3.37917135,47.7958417 3.37917135,57.2575885 C3.37917135,62.8814966 9.52135096,68.0307781 16.0680595,68.0307781 L54.8651982,68.0307781 Z" fill-rule="nonzero"></path>
            <path d="M28.796513,45.3024241 C28.7490182,45.2529109 28.5531055,44.893949 28.2087709,44.2255307 C27.8093421,43.450164 27.5440543,42.8844425 27.4128979,42.5283476 C27.2936659,42.1952268 27.192319,41.80755 27.1088572,41.3653031 C27.0253944,40.9230572 26.9836635,40.4492294 26.9836635,39.9438047 C26.9836635,38.1518459 27.7407787,36.5465742 29.2550313,35.1279401 C30.7692839,33.7093059 32.9392834,33 35.7650938,33 C38.4239787,33 40.4359971,33.7006906 41.8012092,35.1020942 C43.1664213,36.5034978 43.8669013,38.4849611 43.9026715,41.046543 L40.5939859,41.046543 C40.5939859,39.3120186 40.1736979,37.9939158 39.3331084,37.0921924 C38.4925188,36.19047 37.2137697,35.7396153 35.4968213,35.7396153 C33.8275665,35.7396153 32.5637207,36.1617533 31.705247,37.0060414 C30.8467733,37.8503295 30.4175418,38.8755209 30.4175418,40.0816474 C30.4175418,40.6789667 30.5516771,41.2935072 30.8199496,41.9252876 C31.088223,42.557068 31.6575496,43.6827684 32.5279467,45.3024241 L38.3941566,45.3024241 L38.3941566,47.0943735 L33.3327622,47.0943735 C33.4519952,47.6227714 33.5384368,48.0362941 33.5920921,48.3349537 C33.6457464,48.6336143 33.6725731,48.9437563 33.6725731,49.2653891 C33.6725731,50.4140812 33.314881,51.5483969 32.5994861,52.6683705 C31.8840912,53.788345 30.7633222,54.8996875 29.2371462,56.0024315 C30.0598507,55.6003893 30.8706192,55.281632 31.6694768,55.0461502 C32.4683355,54.8106684 33.2492965,54.6929299 34.012384,54.6929299 C34.8708587,54.6929299 36.0065309,54.8968195 37.4194366,55.3046042 C38.8323413,55.7123899 39.75936,55.9162795 40.2005207,55.9162795 C40.7609135,55.9162795 41.2736058,55.8128988 41.7386124,55.6061347 C42.0247699,55.479779 42.4599622,55.2155833 43.0442017,54.8135411 L44.528639,57.1396301 C43.8609367,57.6565409 43.2647835,58.0413469 42.74016,58.2940592 C41.8697629,58.6961014 40.9457251,58.8971192 39.9680184,58.8971192 C39.2526235,58.8971192 38.0513736,58.6329245 36.3642337,58.1045257 C34.6770938,57.5761278 33.3446904,57.311933 32.3669838,57.311933 C31.4608165,57.311933 30.6023554,57.461261 29.7915743,57.7599206 C29.3146444,57.9437107 28.7006061,58.2538527 27.9494419,58.690356 L26.178848,56.2436549 C27.526175,55.3361889 28.6111748,54.3339707 29.4338793,53.2369703 C30.2565838,52.1399698 30.6679292,50.9482208 30.6679292,49.6616858 C30.6679292,49.2941048 30.5904291,48.8633516 30.4354269,48.3694148 C30.3400407,48.0592682 30.1790798,47.6342584 29.9525382,47.0943735 L26,47.0943735 L26,45.3024241 L28.796511,45.3024241 L28.796513,45.3024241 Z" id="money-path"></path>
        </g>
    </g>
</svg>