<?xml version="1.0" encoding="UTF-8"?>
<svg width="256px" height="78px" viewBox="0 0 256 78" version="1.1" xmlns="http://www.w3.org/2000/svg" xmlns:xlink="http://www.w3.org/1999/xlink">
    <!-- Generator: Sketch 44.1 (41455) - http://www.bohemiancoding.com/sketch -->
    <title>supur copy</title>
    <desc>Created with Sketch.</desc>
    <defs>
        <linearGradient x1="-56.2065016%" y1="41.5968031%" x2="98.8168328%" y2="41.5968031%" id="linearGradient-1">
            <stop stop-color="#D9D9D9" offset="0%"></stop>
            <stop stop-color="#FFFFFF" offset="100%"></stop>
        </linearGradient>
        <linearGradient x1="96.0964131%" y1="47.6494144%" x2="-31.8856597%" y2="47.6494142%" id="linearGradient-2">
            <stop stop-color="#FFFFFF" offset="0%"></stop>
            <stop stop-color="#D9D9D9" offset="100%"></stop>
        </linearGradient>
        <linearGradient x1="137.696405%" y1="46.3212937%" x2="0.651705995%" y2="46.3212937%" id="linearGradient-3">
            <stop stop-color="#D9D9D9" offset="0%"></stop>
            <stop stop-color="#FFFFFF" offset="100%"></stop>
        </linearGradient>
        <linearGradient x1="137.696405%" y1="46.3212937%" x2="2.93232469%" y2="46.3212937%" id="linearGradient-4">
            <stop stop-color="#D9D9D9" offset="0%"></stop>
            <stop stop-color="#FFFFFF" offset="100%"></stop>
        </linearGradient>
    </defs>
    <g id="Page-1" stroke="none" stroke-width="1" fill="none" fill-rule="evenodd">
        <g id="Artboard-6" transform="translate(-88.000000, -58.000000)" fill-rule="nonzero">
            <g id="supur-copy" transform="translate(88.000000, 58.000000)">
                <path d="M30.7443565,41.4188865 C30.7443565,39.7886906 29.9955582,38.387762 28.4979391,37.2160587 C27.0003201,36.0443554 24.2225199,35.0170078 20.1644554,34.133985 C14.0451517,32.8434133 9.39938167,30.8906037 6.22700581,28.2754978 C3.05462996,25.6603919 1.46846582,22.1113727 1.46846582,17.628334 C1.46846582,12.9075584 3.36864214,8.8830726 7.16905182,5.55475598 C10.9694614,2.22643934 16.0258628,0.562305984 22.3384077,0.562305984 C28.9408143,0.562305984 34.2307119,2.22643934 38.2082593,5.55475598 C42.1858067,8.8830726 44.0940346,13.026425 43.9330003,17.9849376 L43.8363802,18.2905978 L30.2129459,18.2905978 C30.2129459,16.0830408 29.536612,14.2830599 28.1839238,12.8906008 C26.8312356,11.4981419 24.8827498,10.8019228 22.3384077,10.8019228 C20.0839274,10.8019228 18.2964734,11.3962561 16.9759921,12.5849407 C15.6555108,13.7736252 14.99528,15.2339871 14.99528,16.9660702 C14.99528,18.664191 15.6796655,20.0481386 17.0484571,21.1179547 C18.4172488,22.1877707 21.1950489,23.1471946 25.3819409,23.9962549 C31.7911063,25.3547515 36.5657018,27.3500134 39.7058709,29.9821006 C42.8460398,32.6141877 44.4161008,36.2396211 44.4161008,40.8585095 C44.4161008,45.817022 42.4032022,49.8754697 38.3773445,53.0339743 C34.3514868,56.1924788 29.0374344,57.7717074 22.4350278,57.7717074 C15.4783457,57.7717074 9.97910662,55.9122931 5.9371455,52.1934087 C1.89518439,48.4745243 -0.0291467132,44.2377766 0.164094456,39.4830386 L0.260714557,39.1773783 L13.159498,39.1773783 C13.2561186,42.1321085 14.1740004,44.2717085 15.913171,45.5962426 C17.6523414,46.9207768 19.9228911,47.583034 22.7248881,47.583034 C25.3336439,47.583034 27.3223877,47.031153 28.6911793,45.9273745 C30.0599709,44.823596 30.7443565,43.3207817 30.7443565,41.4188865 Z" id="supur" fill="#FFFFFF"></path>
                <path d="M159.463588,30.669836 C159.463588,38.8208155 157.676134,45.3754633 154.101172,50.3339758 C150.52621,55.2924883 145.534222,57.7717074 139.125056,57.7717074 C136.387473,57.7717074 133.955892,57.2368074 131.830238,56.1669914 C129.704586,55.0971753 127.884925,53.5264372 126.371203,51.4547299 L126.371203,77.8943374 L112.312978,77.8943374 L112.312978,1.58117333 L125.018521,1.58117333 L125.839792,8.10192435 C127.385722,5.6905929 129.24564,3.83117859 131.419603,2.52362563 C133.593566,1.21607266 136.129819,0.562305984 139.028436,0.562305984 C145.502016,0.562305984 150.52621,3.22831554 154.101172,8.56041463 C157.676134,13.8925138 159.463588,20.9056471 159.463588,29.6000253 L159.463588,30.669836 Z M145.357053,29.6000253 C145.357053,24.4037759 144.53579,20.1924997 142.89324,16.9660702 C141.25069,13.7396408 138.738593,12.1264504 135.356872,12.1264504 C133.23122,12.1264504 131.419611,12.5849361 129.921992,13.5019213 C128.424372,14.4189065 127.240789,15.7264398 126.371203,17.4245605 L126.371203,41.5717166 C127.240789,43.1339877 128.424372,44.3226544 129.921992,45.1377524 C131.419611,45.9528503 133.263426,46.3603932 135.453493,46.3603932 C138.86742,46.3603932 141.371466,44.9509741 142.965705,42.1320937 C144.559945,39.3132133 145.357053,35.4924989 145.357053,30.669836 L145.357053,29.6000253 Z" id="Combined-Shape" fill="url(#linearGradient-1)"></path>
                <polygon id="Combined-Shape" fill="#FFFFFF" points="126.371203 51.4547299 126.371203 77.8943374 112.312978 77.8943374 112.312978 1.58117333 125.018521 1.58117333 125.839792 8.10192435"></polygon>
                <path d="M254.462403,14.3679585 L249.293228,14.2151284 C247.199782,14.2151284 245.476741,14.6736141 244.124053,15.5905994 C242.771364,16.5075845 241.74076,17.7981369 241.032209,19.4622952 L241.032209,56.7018967 L226.973985,56.7018967 L226.973985,1.58117333 L240.066008,1.58117333 L240.694039,9.7321121 C241.9179,6.84530687 243.504064,4.59533062 245.452579,2.98211593 C247.401094,1.36890123 249.647489,0.562305984 252.191831,0.562305984 C252.900382,0.562305984 253.552561,0.621739318 254.148388,0.74060777 C254.744215,0.859476221 255.348085,1.00381432 255.960015,1.17362639 L254.462403,14.3679585 Z" id="Path" fill="url(#linearGradient-2)"></path>
                <polygon id="Path-Copy-4" fill="#FFFFFF" points="241.032209 19.4622952 241.032209 56.7018967 226.973985 56.7018967 226.973985 1.58117333 240.066008 1.58117333 240.694039 9.7321121"></polygon>
                <path d="M87.0092656,48.537025 C85.3989225,51.491755 83.3538176,53.7672027 80.8738893,55.3634362 C78.3939609,56.9596697 75.5114902,57.7577744 72.2263903,57.7577744 C66.7190168,57.7577744 62.4114139,55.7879839 59.3034518,51.8483438 C56.1954896,47.9087037 54.6415319,41.7955608 54.6415319,33.5087316 L54.6415319,1.56724032 L68.6997565,1.56724032 L68.6997565,33.6106183 C68.6997565,38.4332812 69.3197292,41.7360765 70.5596936,43.5191032 C71.7996575,45.30213 73.7239891,46.19363 76.3327448,46.19363 C78.5872247,46.19363 80.5196075,45.8115586 82.1299506,45.0474043 C83.7402937,44.2832499 85.0607555,43.1540166 86.0913749,41.6596703 L86.0913749,1.56724032 L100.19791,1.56724032 L100.19791,56.6879637 L88.5068776,56.6879637 L87.0092656,48.537025 Z" id="Path-Copy-5" fill="url(#linearGradient-3)"></path>
                <polygon id="Path-Copy" fill="#FFFFFF" points="87.0120384 48.550958 86.0941477 41.6736034 86.0941477 1.58117333 100.200682 1.58117333 100.200682 56.7018967 88.5096504 56.7018967"></polygon>
                <path d="M201.781259,48.550958 C200.170916,51.505688 198.125811,53.7811356 195.645883,55.3773691 C193.165955,56.9736026 190.283484,57.7717074 186.998384,57.7717074 C181.491011,57.7717074 177.183408,55.8019169 174.075445,51.8622768 C170.967484,47.9226367 169.413526,41.8094938 169.413526,33.5226646 L169.413526,1.58117333 L183.47175,1.58117333 L183.47175,33.6245513 C183.47175,38.4472142 184.091723,41.7500095 185.331687,43.5330362 C186.571651,45.316063 188.495982,46.2075631 191.104739,46.2075631 C193.359219,46.2075631 195.291601,45.8254916 196.901944,45.0613373 C198.512287,44.297183 199.832749,43.1679496 200.863369,41.6736034 L200.863369,1.58117333 L214.969903,1.58117333 L214.969903,56.7018967 L203.278871,56.7018967 L201.781259,48.550958 Z" id="Path" fill="url(#linearGradient-4)"></path>
                <polygon id="Path-Copy" fill="#FFFFFF" points="201.781259 48.550958 200.863369 41.6736034 200.863369 1.58117333 214.969903 1.58117333 214.969903 56.7018967 203.278871 56.7018967"></polygon>
            </g>
        </g>
    </g>
</svg>