<?xml version="1.0" encoding="UTF-8"?>
<svg width="427px" height="128px" viewBox="0 0 427 128" version="1.1" xmlns="http://www.w3.org/2000/svg" xmlns:xlink="http://www.w3.org/1999/xlink">
    <!-- Generator: Sketch 41 (35326) - http://www.bohemiancoding.com/sketch -->
    <title>supur copy</title>
    <desc>Created with Sketch.</desc>
    <defs>
        <linearGradient x1="-59.5876235%" y1="41.5968031%" x2="100%" y2="41.5968031%" id="linearGradient-1">
            <stop stop-color="#2F9E7A" offset="0%"></stop>
            <stop stop-color="#33C898" offset="100%"></stop>
        </linearGradient>
        <linearGradient x1="100%" y1="41.4652267%" x2="-32.7907626%" y2="41.4652258%" id="linearGradient-2">
            <stop stop-color="#33C898" offset="0%"></stop>
            <stop stop-color="#30A37E" offset="100%"></stop>
        </linearGradient>
        <linearGradient x1="137.696405%" y1="46.3212937%" x2="0.651705995%" y2="46.3212937%" id="linearGradient-3">
            <stop stop-color="#2E9171" offset="0%"></stop>
            <stop stop-color="#33C898" offset="100%"></stop>
        </linearGradient>
    </defs>
    <g id="Page-1" stroke="none" stroke-width="1" fill="none" fill-rule="evenodd">
        <g id="Desktop-HD" transform="translate(-120.000000, -327.000000)">
            <g id="Title-screen-content" transform="translate(120.000000, 327.595049)">
                <g id="supur-copy">
                    <path d="M51.2806258,67.3744058 C51.2806258,64.6992125 50.0316537,62.4002528 47.5336719,60.4774576 C45.0356901,58.5546625 40.4024063,56.8687587 33.6336815,55.4196956 C23.4268742,53.3018343 15.6778749,50.0972237 10.3864511,45.8057679 C5.09502731,41.514312 2.4493551,35.6902806 2.4493551,28.3334991 C2.4493551,20.5865853 5.61878982,13.9823009 11.9577544,8.52044799 C18.2967189,3.05859504 26.7306384,0.327709538 37.2597659,0.327709538 C48.2723738,0.327709538 57.0957577,3.05859504 63.7301825,8.52044799 C70.3646072,13.9823009 73.5474718,20.7816485 73.2788716,28.9186947 L73.1177123,29.420291 L50.3942496,29.420291 C50.3942496,25.7976334 49.2661458,22.8438185 47.0099041,20.5587575 C44.7536625,18.2736966 41.503649,17.1311833 37.2597659,17.1311833 C33.4993632,17.1311833 30.5179458,18.1064995 28.3154243,20.0571613 C26.1129027,22.0078231 25.0116584,24.4043144 25.0116584,27.2467073 C25.0116584,30.033367 26.1531921,32.3044605 28.4362937,34.0600561 C30.7193954,35.8156517 35.3526792,37.3900908 42.3362842,38.7834206 C53.0265718,41.0127483 60.990448,44.2870243 66.2281518,48.6063468 C71.4658555,52.9256693 74.0846681,58.8750984 74.0846681,66.4548127 C74.0846681,74.5918589 70.7272161,81.2518756 64.0122113,86.4350626 C57.2972065,91.6182496 48.4335331,94.2098042 37.4209252,94.2098042 C25.8173969,94.2098042 16.644838,91.1584576 9.90297316,85.055673 C3.16110834,78.9528883 -0.0486158068,72.0002767 0.273704424,64.1976297 L0.434863733,63.6960334 L21.9496315,63.6960334 C22.1107916,68.5448213 23.6417898,72.0559598 26.5426719,74.2295543 C29.4435539,76.4031488 33.2307598,77.4899298 37.9044032,77.4899298 C42.2557263,77.4899298 45.5728889,76.584279 47.8559905,74.7729502 C50.1390921,72.9616214 51.2806258,70.4954646 51.2806258,67.3744058 Z" id="supur" fill="#33C898"></path>
                    <path d="M265.980281,49.7349383 C265.980281,63.1109047 262.998864,73.8672497 257.035939,82.0042959 C251.073015,90.1413421 242.746534,94.2098042 232.056246,94.2098042 C227.490043,94.2098042 223.434241,93.3320196 219.888718,91.576424 C216.343196,89.8208284 213.308059,87.2432069 210.783218,83.8434821 L210.783218,127.231556 L187.334538,127.231556 L187.334538,1.99969698 L208.526987,1.99969698 L209.896841,12.7004166 C212.475403,8.74335986 215.577689,5.6920133 219.203791,3.54628536 C222.829894,1.40055742 227.060284,0.327709538 231.895087,0.327709538 C242.692815,0.327709538 251.073015,4.70269958 257.035939,13.4528109 C262.998864,22.2029223 265.980281,33.711654 265.980281,47.9793515 L265.980281,49.7349383 Z M242.451022,47.9793515 C242.451022,39.452173 241.081181,32.5413607 238.341459,27.2467073 C235.601737,21.9520539 231.411637,19.304767 225.771033,19.304767 C222.225511,19.304767 219.203804,20.0571538 216.705822,21.56195 C214.20784,23.0667462 212.233659,25.212442 210.783218,27.9991016 L210.783218,67.6252039 C212.233659,70.1889308 214.20784,72.1395633 216.705822,73.47716 C219.203804,74.8147566 222.27923,75.4835449 225.932193,75.4835449 C231.626517,75.4835449 235.803187,73.1706521 238.462329,68.544797 C241.121471,63.918942 242.451022,57.6490518 242.451022,49.7349383 L242.451022,47.9793515 Z" id="Combined-Shape" fill="url(#linearGradient-1)"></path>
                    <path d="M210.783218,83.8434821 L210.783218,127.231556 L187.334538,127.231556 L187.334538,1.99969698 L208.526987,1.99969698 L209.896841,12.7004166 L210.783218,83.8434821 Z" id="Combined-Shape" fill="#33C898"></path>
                    <path d="M424.435337,22.9831393 L415.813314,22.7323412 C412.321512,22.7323412 409.447533,23.484728 407.191291,24.9895243 C404.935049,26.4943205 403.216034,28.61215 402.034193,31.3430765 L402.034193,92.4542174 L378.585514,92.4542174 L378.585514,1.99969698 L400.4226,1.99969698 L401.470136,15.3755965 C403.511497,10.6382751 406.157169,6.94600638 409.407232,4.2986797 C412.657294,1.65135302 416.40421,0.327709538 420.648093,0.327709538 C421.829934,0.327709538 422.917749,0.425241163 423.911569,0.62030734 C424.90539,0.815373516 425.912626,1.05223603 426.933306,1.330902 L424.435337,22.9831393 Z" id="Path" fill="url(#linearGradient-2)"></path>
                    <polygon id="Path-Copy-4" fill="#33C898" points="402.034193 31.3430765 402.034193 92.4542174 378.585514 92.4542174 378.585514 1.99969698 400.4226 1.99969698 401.470136 15.3755965"></polygon>
                    <path d="M145.128736,79.0554535 C142.442734,83.9042413 139.031563,87.6383092 134.89512,90.2577693 C130.758677,92.8772294 125.950806,94.1869398 120.471362,94.1869398 C111.285235,94.1869398 104.100288,90.954463 98.9163043,84.4894126 C93.7323206,78.0243622 91.1403677,67.9925379 91.1403677,54.3936387 L91.1403677,1.97683255 L114.589047,1.97683255 L114.589047,54.5608375 C114.589047,62.4749509 115.623142,67.8949227 117.691364,70.8209153 C119.759585,73.746908 122.96931,75.2098823 127.320633,75.2098823 C131.081035,75.2098823 134.304189,74.5828933 136.990191,73.3288965 C139.676193,72.0748996 141.878682,70.2217987 143.597723,67.7695382 L143.597723,1.97683255 L167.126982,1.97683255 L167.126982,92.431353 L147.626706,92.431353 L145.128736,79.0554535 Z" id="Path-Copy-5" fill="url(#linearGradient-3)"></path>
                    <polygon id="Path-Copy" fill="#33C898" points="145.133361 79.0783179 143.602348 67.7924027 143.602348 1.99969698 167.131607 1.99969698 167.131607 92.4542174 147.631331 92.4542174"></polygon>
                    <path d="M336.564835,79.0783179 C333.878833,83.9271057 330.467662,87.6611736 326.331219,90.2806337 C322.194776,92.9000938 317.386905,94.2098042 311.907461,94.2098042 C302.721334,94.2098042 295.536387,90.9773275 290.352403,84.5122771 C285.16842,78.0472266 282.576467,68.0154023 282.576467,54.4165032 L282.576467,1.99969698 L306.025146,1.99969698 L306.025146,54.5837019 C306.025146,62.4978154 307.059241,67.9177871 309.127463,70.8437797 C311.195684,73.7697724 314.405408,75.2327468 318.756732,75.2327468 C322.517134,75.2327468 325.740288,74.6057578 328.42629,73.3517609 C331.112292,72.0977641 333.314781,70.2446632 335.033822,67.7924027 L335.033822,1.99969698 L358.563081,1.99969698 L358.563081,92.4542174 L339.062805,92.4542174 L336.564835,79.0783179 Z" id="Path" fill="url(#linearGradient-3)"></path>
                    <polygon id="Path-Copy" fill="#33C898" points="336.564835 79.0783179 335.033822 67.7924027 335.033822 1.99969698 358.563081 1.99969698 358.563081 92.4542174 339.062805 92.4542174"></polygon>
                </g>
            </g>
        </g>
    </g>
</svg>