<?xml version="1.0" encoding="UTF-8"?>
<svg width="76px" height="76px" viewBox="0 0 76 76" version="1.1" xmlns="http://www.w3.org/2000/svg" xmlns:xlink="http://www.w3.org/1999/xlink">
    <!-- Generator: Sketch 44.1 (41455) - http://www.bohemiancoding.com/sketch -->
    <title>Combined Shape</title>
    <desc>Created with Sketch.</desc>
    <defs></defs>
    <g id="Page-1" stroke="none" stroke-width="1" fill="none" fill-rule="evenodd">
        <g id="Artboard" transform="translate(-455.000000, -104.000000)" fill="#32BE73">
            <path d="M495.155451,138.629839 C496.264805,139.340822 497,140.584554 497,142 C497,142.583575 496.875029,143.137961 496.65039,143.637857 L509.449732,154.764156 L509.449732,154.764156 C510.328082,155.527693 510.421156,156.858706 509.657618,157.737056 L509.657618,157.737056 L509.657618,157.737056 C508.89408,158.615406 507.563067,158.708479 506.684717,157.944942 L492.943179,145.999605 C490.760234,145.96921 489,144.190168 489,142 C489,140.506477 489.818539,139.204135 491.031482,138.517108 L491.031483,119.061984 C491.031483,117.923182 491.954664,117 493.093467,117 C494.232269,117 495.155451,117.923182 495.155451,119.061984 L495.155451,138.629839 Z M493,180 C472.01318,180 455,162.98682 455,142 C455,121.01318 472.01318,104 493,104 C513.98682,104 531,121.01318 531,142 C531,162.98682 513.98682,180 493,180 Z M493,176.695652 C512.16188,176.695652 527.695652,161.16188 527.695652,142 C527.695652,122.83812 512.16188,107.304348 493,107.304348 C473.83812,107.304348 458.304348,122.83812 458.304348,142 C458.304348,161.16188 473.83812,176.695652 493,176.695652 Z M493,175 C491.895431,175 491,174.104569 491,173 C491,171.895431 491.895431,171 493,171 C494.104569,171 495,171.895431 495,173 C495,174.104569 494.104569,175 493,175 Z M462,144 C460.895431,144 460,143.104569 460,142 C460,140.895431 460.895431,140 462,140 C463.104569,140 464,140.895431 464,142 C464,143.104569 463.104569,144 462,144 Z M524,144 C522.895431,144 522,143.104569 522,142 C522,140.895431 522.895431,140 524,140 C525.104569,140 526,140.895431 526,142 C526,143.104569 525.104569,144 524,144 Z M516,123 C514.895431,123 514,122.104569 514,121 C514,119.895431 514.895431,119 516,119 C517.104569,119 518,119.895431 518,121 C518,122.104569 517.104569,123 516,123 Z M470,123 C468.895431,123 468,122.104569 468,121 C468,119.895431 468.895431,119 470,119 C471.104569,119 472,119.895431 472,121 C472,122.104569 471.104569,123 470,123 Z M470,166 C468.895431,166 468,165.104569 468,164 C468,162.895431 468.895431,162 470,162 C471.104569,162 472,162.895431 472,164 C472,165.104569 471.104569,166 470,166 Z M516,166 C514.895431,166 514,165.104569 514,164 C514,162.895431 514.895431,162 516,162 C517.104569,162 518,162.895431 518,164 C518,165.104569 517.104569,166 516,166 Z M493,113 C491.895431,113 491,112.104569 491,111 C491,109.895431 491.895431,109 493,109 C494.104569,109 495,109.895431 495,111 C495,112.104569 494.104569,113 493,113 Z" id="Combined-Shape"></path>
        </g>
    </g>
</svg>